<svg xmlns="http://www.w3.org/2000/svg" viewBox="0 0 800 480" width="800" height="480" role="img" aria-label="Generated architectural illustration for 3 BHK in Kadamba Grove"><defs><linearGradient id="sky" x1="0" y1="0" x2="0" y2="1"><stop offset="0%" stop-color="hsl(179 34% 13%)"/><stop offset="100%" stop-color="hsl(185 40% 7%)"/></linearGradient><linearGradient id="glow" x1="0" y1="0" x2="1" y2="1"><stop offset="0%" stop-color="#4fd1c5" stop-opacity="0.22"/><stop offset="100%" stop-color="#4fd1c5" stop-opacity="0"/></linearGradient><linearGradient id="face" x1="0" y1="0" x2="1" y2="0"><stop offset="0%" stop-color="hsl(179 26% 17%)"/><stop offset="100%" stop-color="hsl(179 30% 26%)"/></linearGradient><linearGradient id="side" x1="0" y1="0" x2="1" y2="0"><stop offset="0%" stop-color="hsl(179 30% 11%)"/><stop offset="100%" stop-color="hsl(179 28% 15%)"/></linearGradient></defs><rect width="800" height="480" fill="url(#sky)"/><circle cx="624" cy="96" r="210" fill="url(#glow)"/><polygon points="224,164 258,148 258,406 224,422" fill="url(#side)"/><rect x="96" y="164" width="128" height="258" fill="url(#face)"/><rect x="96" y="183.5" width="128" height="1.4" fill="hsl(179 22% 9%)" opacity="0.7"/><rect x="105.0" y="169.0" width="20.5" height="9.5" rx="1" fill="hsl(179 24% 12%)" opacity="0.85"/><rect x="132.5" y="169.0" width="20.5" height="9.5" rx="1" fill="hsl(179 24% 12%)" opacity="0.85"/><rect x="160.0" y="169.0" width="20.5" height="9.5" rx="1" fill="#4fd1c5" opacity="0.72"/><rect x="187.5" y="169.0" width="20.5" height="9.5" rx="1" fill="hsl(179 24% 12%)" opacity="0.85"/><rect x="96" y="205.0" width="128" height="1.4" fill="hsl(179 22% 9%)" opacity="0.7"/><rect x="105.0" y="190.5" width="20.5" height="9.5" rx="1" fill="hsl(179 24% 12%)" opacity="0.85"/><rect x="132.5" y="190.5" width="20.5" height="9.5" rx="1" fill="hsl(179 24% 12%)" opacity="0.85"/><rect x="160.0" y="190.5" width="20.5" height="9.5" rx="1" fill="hsl(179 24% 12%)" opacity="0.85"/><rect x="187.5" y="190.5" width="20.5" height="9.5" rx="1" fill="hsl(179 24% 12%)" opacity="0.85"/><rect x="96" y="226.5" width="128" height="1.4" fill="hsl(179 22% 9%)" opacity="0.7"/><rect x="105.0" y="212.0" width="20.5" height="9.5" rx="1" fill="#4fd1c5" opacity="0.55"/><rect x="132.5" y="212.0" width="20.5" height="9.5" rx="1" fill="hsl(179 24% 12%)" opacity="0.85"/><rect x="160.0" y="212.0" width="20.5" height="9.5" rx="1" fill="hsl(179 24% 12%)" opacity="0.85"/><rect x="187.5" y="212.0" width="20.5" height="9.5" rx="1" fill="hsl(179 24% 12%)" opacity="0.85"/><rect x="96" y="248.0" width="128" height="1.4" fill="hsl(179 22% 9%)" opacity="0.7"/><rect x="105.0" y="233.5" width="20.5" height="9.5" rx="1" fill="#4fd1c5" opacity="0.74"/><rect x="132.5" y="233.5" width="20.5" height="9.5" rx="1" fill="hsl(179 24% 12%)" opacity="0.85"/><rect x="160.0" y="233.5" width="20.5" height="9.5" rx="1" fill="hsl(179 24% 12%)" opacity="0.85"/><rect x="187.5" y="233.5" width="20.5" height="9.5" rx="1" fill="hsl(179 24% 12%)" opacity="0.85"/><rect x="96" y="269.5" width="128" height="1.4" fill="hsl(179 22% 9%)" opacity="0.7"/><rect x="105.0" y="255.0" width="20.5" height="9.5" rx="1" fill="hsl(179 24% 12%)" opacity="0.85"/><rect x="132.5" y="255.0" width="20.5" height="9.5" rx="1" fill="hsl(179 24% 12%)" opacity="0.85"/><rect x="160.0" y="255.0" width="20.5" height="9.5" rx="1" fill="hsl(179 24% 12%)" opacity="0.85"/><rect x="187.5" y="255.0" width="20.5" height="9.5" rx="1" fill="hsl(179 24% 12%)" opacity="0.85"/><rect x="96" y="291.0" width="128" height="1.4" fill="hsl(179 22% 9%)" opacity="0.7"/><rect x="105.0" y="276.5" width="20.5" height="9.5" rx="1" fill="hsl(179 24% 12%)" opacity="0.85"/><rect x="132.5" y="276.5" width="20.5" height="9.5" rx="1" fill="hsl(179 24% 12%)" opacity="0.85"/><rect x="160.0" y="276.5" width="20.5" height="9.5" rx="1" fill="hsl(179 24% 12%)" opacity="0.85"/><rect x="187.5" y="276.5" width="20.5" height="9.5" rx="1" fill="hsl(179 24% 12%)" opacity="0.85"/><rect x="96" y="312.5" width="128" height="1.4" fill="hsl(179 22% 9%)" opacity="0.7"/><rect x="105.0" y="298.0" width="20.5" height="9.5" rx="1" fill="hsl(179 24% 12%)" opacity="0.85"/><rect x="132.5" y="298.0" width="20.5" height="9.5" rx="1" fill="hsl(179 24% 12%)" opacity="0.85"/><rect x="160.0" y="298.0" width="20.5" height="9.5" rx="1" fill="hsl(179 24% 12%)" opacity="0.85"/><rect x="187.5" y="298.0" width="20.5" height="9.5" rx="1" fill="hsl(179 24% 12%)" opacity="0.85"/><rect x="96" y="334.0" width="128" height="1.4" fill="hsl(179 22% 9%)" opacity="0.7"/><rect x="105.0" y="319.5" width="20.5" height="9.5" rx="1" fill="hsl(179 24% 12%)" opacity="0.85"/><rect x="132.5" y="319.5" width="20.5" height="9.5" rx="1" fill="hsl(179 24% 12%)" opacity="0.85"/><rect x="160.0" y="319.5" width="20.5" height="9.5" rx="1" fill="hsl(179 24% 12%)" opacity="0.85"/><rect x="187.5" y="319.5" width="20.5" height="9.5" rx="1" fill="#4fd1c5" opacity="0.41"/><rect x="96" y="355.5" width="128" height="1.4" fill="hsl(179 22% 9%)" opacity="0.7"/><rect x="105.0" y="341.0" width="20.5" height="9.5" rx="1" fill="hsl(179 24% 12%)" opacity="0.85"/><rect x="132.5" y="341.0" width="20.5" height="9.5" rx="1" fill="hsl(179 24% 12%)" opacity="0.85"/><rect x="160.0" y="341.0" width="20.5" height="9.5" rx="1" fill="hsl(179 24% 12%)" opacity="0.85"/><rect x="187.5" y="341.0" width="20.5" height="9.5" rx="1" fill="#4fd1c5" opacity="0.47"/><rect x="96" y="377.0" width="128" height="1.4" fill="hsl(179 22% 9%)" opacity="0.7"/><rect x="105.0" y="362.5" width="20.5" height="9.5" rx="1" fill="hsl(179 24% 12%)" opacity="0.85"/><rect x="132.5" y="362.5" width="20.5" height="9.5" rx="1" fill="#4fd1c5" opacity="0.60"/><rect x="160.0" y="362.5" width="20.5" height="9.5" rx="1" fill="hsl(179 24% 12%)" opacity="0.85"/><rect x="187.5" y="362.5" width="20.5" height="9.5" rx="1" fill="#4fd1c5" opacity="0.42"/><rect x="96" y="398.5" width="128" height="1.4" fill="hsl(179 22% 9%)" opacity="0.7"/><rect x="105.0" y="384.0" width="20.5" height="9.5" rx="1" fill="hsl(179 24% 12%)" opacity="0.85"/><rect x="132.5" y="384.0" width="20.5" height="9.5" rx="1" fill="hsl(179 24% 12%)" opacity="0.85"/><rect x="160.0" y="384.0" width="20.5" height="9.5" rx="1" fill="hsl(179 24% 12%)" opacity="0.85"/><rect x="187.5" y="384.0" width="20.5" height="9.5" rx="1" fill="#4fd1c5" opacity="0.50"/><rect x="96" y="420.0" width="128" height="1.4" fill="hsl(179 22% 9%)" opacity="0.7"/><rect x="105.0" y="405.5" width="20.5" height="9.5" rx="1" fill="hsl(179 24% 12%)" opacity="0.85"/><rect x="132.5" y="405.5" width="20.5" height="9.5" rx="1" fill="hsl(179 24% 12%)" opacity="0.85"/><rect x="160.0" y="405.5" width="20.5" height="9.5" rx="1" fill="hsl(179 24% 12%)" opacity="0.85"/><rect x="187.5" y="405.5" width="20.5" height="9.5" rx="1" fill="hsl(179 24% 12%)" opacity="0.85"/><polygon points="476,88 520,72 520,406 476,422" fill="url(#side)"/><rect x="300" y="88" width="176" height="334" fill="url(#face)"/><rect x="300" y="113.8" width="176" height="1.4" fill="hsl(179 22% 9%)" opacity="0.7"/><rect x="309.0" y="93.0" width="19.3" height="15.8" rx="1" fill="#4fd1c5" opacity="0.71"/><rect x="335.3" y="93.0" width="19.3" height="15.8" rx="1" fill="#4fd1c5" opacity="0.79"/><rect x="361.7" y="93.0" width="19.3" height="15.8" rx="1" fill="hsl(179 24% 12%)" opacity="0.85"/><rect x="388.0" y="93.0" width="19.3" height="15.8" rx="1" fill="hsl(179 24% 12%)" opacity="0.85"/><rect x="414.3" y="93.0" width="19.3" height="15.8" rx="1" fill="#4fd1c5" opacity="0.71"/><rect x="440.7" y="93.0" width="19.3" height="15.8" rx="1" fill="hsl(179 24% 12%)" opacity="0.85"/><rect x="300" y="141.7" width="176" height="1.4" fill="hsl(179 22% 9%)" opacity="0.7"/><rect x="309.0" y="120.8" width="19.3" height="15.8" rx="1" fill="#4fd1c5" opacity="0.39"/><rect x="335.3" y="120.8" width="19.3" height="15.8" rx="1" fill="#4fd1c5" opacity="0.57"/><rect x="361.7" y="120.8" width="19.3" height="15.8" rx="1" fill="hsl(179 24% 12%)" opacity="0.85"/><rect x="388.0" y="120.8" width="19.3" height="15.8" rx="1" fill="#4fd1c5" opacity="0.45"/><rect x="414.3" y="120.8" width="19.3" height="15.8" rx="1" fill="hsl(179 24% 12%)" opacity="0.85"/><rect x="440.7" y="120.8" width="19.3" height="15.8" rx="1" fill="hsl(179 24% 12%)" opacity="0.85"/><rect x="300" y="169.5" width="176" height="1.4" fill="hsl(179 22% 9%)" opacity="0.7"/><rect x="309.0" y="148.7" width="19.3" height="15.8" rx="1" fill="hsl(179 24% 12%)" opacity="0.85"/><rect x="335.3" y="148.7" width="19.3" height="15.8" rx="1" fill="hsl(179 24% 12%)" opacity="0.85"/><rect x="361.7" y="148.7" width="19.3" height="15.8" rx="1" fill="hsl(179 24% 12%)" opacity="0.85"/><rect x="388.0" y="148.7" width="19.3" height="15.8" rx="1" fill="hsl(179 24% 12%)" opacity="0.85"/><rect x="414.3" y="148.7" width="19.3" height="15.8" rx="1" fill="hsl(179 24% 12%)" opacity="0.85"/><rect x="440.7" y="148.7" width="19.3" height="15.8" rx="1" fill="hsl(179 24% 12%)" opacity="0.85"/><rect x="300" y="197.3" width="176" height="1.4" fill="hsl(179 22% 9%)" opacity="0.7"/><rect x="309.0" y="176.5" width="19.3" height="15.8" rx="1" fill="hsl(179 24% 12%)" opacity="0.85"/><rect x="335.3" y="176.5" width="19.3" height="15.8" rx="1" fill="hsl(179 24% 12%)" opacity="0.85"/><rect x="361.7" y="176.5" width="19.3" height="15.8" rx="1" fill="#4fd1c5" opacity="0.55"/><rect x="388.0" y="176.5" width="19.3" height="15.8" rx="1" fill="#4fd1c5" opacity="0.75"/><rect x="414.3" y="176.5" width="19.3" height="15.8" rx="1" fill="#4fd1c5" opacity="0.42"/><rect x="440.7" y="176.5" width="19.3" height="15.8" rx="1" fill="hsl(179 24% 12%)" opacity="0.85"/><rect x="300" y="225.2" width="176" height="1.4" fill="hsl(179 22% 9%)" opacity="0.7"/><rect x="309.0" y="204.3" width="19.3" height="15.8" rx="1" fill="#4fd1c5" opacity="0.37"/><rect x="335.3" y="204.3" width="19.3" height="15.8" rx="1" fill="#4fd1c5" opacity="0.75"/><rect x="361.7" y="204.3" width="19.3" height="15.8" rx="1" fill="#4fd1c5" opacity="0.72"/><rect x="388.0" y="204.3" width="19.3" height="15.8" rx="1" fill="hsl(179 24% 12%)" opacity="0.85"/><rect x="414.3" y="204.3" width="19.3" height="15.8" rx="1" fill="#4fd1c5" opacity="0.37"/><rect x="440.7" y="204.3" width="19.3" height="15.8" rx="1" fill="#4fd1c5" opacity="0.56"/><rect x="300" y="253.0" width="176" height="1.4" fill="hsl(179 22% 9%)" opacity="0.7"/><rect x="309.0" y="232.2" width="19.3" height="15.8" rx="1" fill="#4fd1c5" opacity="0.36"/><rect x="335.3" y="232.2" width="19.3" height="15.8" rx="1" fill="hsl(179 24% 12%)" opacity="0.85"/><rect x="361.7" y="232.2" width="19.3" height="15.8" rx="1" fill="hsl(179 24% 12%)" opacity="0.85"/><rect x="388.0" y="232.2" width="19.3" height="15.8" rx="1" fill="#4fd1c5" opacity="0.61"/><rect x="414.3" y="232.2" width="19.3" height="15.8" rx="1" fill="hsl(179 24% 12%)" opacity="0.85"/><rect x="440.7" y="232.2" width="19.3" height="15.8" rx="1" fill="hsl(179 24% 12%)" opacity="0.85"/><rect x="300" y="280.8" width="176" height="1.4" fill="hsl(179 22% 9%)" opacity="0.7"/><rect x="309.0" y="260.0" width="19.3" height="15.8" rx="1" fill="hsl(179 24% 12%)" opacity="0.85"/><rect x="335.3" y="260.0" width="19.3" height="15.8" rx="1" fill="#4fd1c5" opacity="0.52"/><rect x="361.7" y="260.0" width="19.3" height="15.8" rx="1" fill="hsl(179 24% 12%)" opacity="0.85"/><rect x="388.0" y="260.0" width="19.3" height="15.8" rx="1" fill="hsl(179 24% 12%)" opacity="0.85"/><rect x="414.3" y="260.0" width="19.3" height="15.8" rx="1" fill="hsl(179 24% 12%)" opacity="0.85"/><rect x="440.7" y="260.0" width="19.3" height="15.8" rx="1" fill="#4fd1c5" opacity="0.55"/><rect x="300" y="308.7" width="176" height="1.4" fill="hsl(179 22% 9%)" opacity="0.7"/><rect x="309.0" y="287.8" width="19.3" height="15.8" rx="1" fill="hsl(179 24% 12%)" opacity="0.85"/><rect x="335.3" y="287.8" width="19.3" height="15.8" rx="1" fill="hsl(179 24% 12%)" opacity="0.85"/><rect x="361.7" y="287.8" width="19.3" height="15.8" rx="1" fill="#4fd1c5" opacity="0.66"/><rect x="388.0" y="287.8" width="19.3" height="15.8" rx="1" fill="hsl(179 24% 12%)" opacity="0.85"/><rect x="414.3" y="287.8" width="19.3" height="15.8" rx="1" fill="hsl(179 24% 12%)" opacity="0.85"/><rect x="440.7" y="287.8" width="19.3" height="15.8" rx="1" fill="#4fd1c5" opacity="0.53"/><rect x="300" y="336.5" width="176" height="1.4" fill="hsl(179 22% 9%)" opacity="0.7"/><rect x="309.0" y="315.7" width="19.3" height="15.8" rx="1" fill="hsl(179 24% 12%)" opacity="0.85"/><rect x="335.3" y="315.7" width="19.3" height="15.8" rx="1" fill="hsl(179 24% 12%)" opacity="0.85"/><rect x="361.7" y="315.7" width="19.3" height="15.8" rx="1" fill="hsl(179 24% 12%)" opacity="0.85"/><rect x="388.0" y="315.7" width="19.3" height="15.8" rx="1" fill="hsl(179 24% 12%)" opacity="0.85"/><rect x="414.3" y="315.7" width="19.3" height="15.8" rx="1" fill="hsl(179 24% 12%)" opacity="0.85"/><rect x="440.7" y="315.7" width="19.3" height="15.8" rx="1" fill="hsl(179 24% 12%)" opacity="0.85"/><rect x="300" y="364.3" width="176" height="1.4" fill="hsl(179 22% 9%)" opacity="0.7"/><rect x="309.0" y="343.5" width="19.3" height="15.8" rx="1" fill="hsl(179 24% 12%)" opacity="0.85"/><rect x="335.3" y="343.5" width="19.3" height="15.8" rx="1" fill="#4fd1c5" opacity="0.58"/><rect x="361.7" y="343.5" width="19.3" height="15.8" rx="1" fill="#4fd1c5" opacity="0.44"/><rect x="388.0" y="343.5" width="19.3" height="15.8" rx="1" fill="#4fd1c5" opacity="0.36"/><rect x="414.3" y="343.5" width="19.3" height="15.8" rx="1" fill="#4fd1c5" opacity="0.55"/><rect x="440.7" y="343.5" width="19.3" height="15.8" rx="1" fill="hsl(179 24% 12%)" opacity="0.85"/><rect x="300" y="392.2" width="176" height="1.4" fill="hsl(179 22% 9%)" opacity="0.7"/><rect x="309.0" y="371.3" width="19.3" height="15.8" rx="1" fill="hsl(179 24% 12%)" opacity="0.85"/><rect x="335.3" y="371.3" width="19.3" height="15.8" rx="1" fill="hsl(179 24% 12%)" opacity="0.85"/><rect x="361.7" y="371.3" width="19.3" height="15.8" rx="1" fill="hsl(179 24% 12%)" opacity="0.85"/><rect x="388.0" y="371.3" width="19.3" height="15.8" rx="1" fill="#4fd1c5" opacity="0.58"/><rect x="414.3" y="371.3" width="19.3" height="15.8" rx="1" fill="hsl(179 24% 12%)" opacity="0.85"/><rect x="440.7" y="371.3" width="19.3" height="15.8" rx="1" fill="hsl(179 24% 12%)" opacity="0.85"/><rect x="300" y="420.0" width="176" height="1.4" fill="hsl(179 22% 9%)" opacity="0.7"/><rect x="309.0" y="399.2" width="19.3" height="15.8" rx="1" fill="hsl(179 24% 12%)" opacity="0.85"/><rect x="335.3" y="399.2" width="19.3" height="15.8" rx="1" fill="#4fd1c5" opacity="0.43"/><rect x="361.7" y="399.2" width="19.3" height="15.8" rx="1" fill="hsl(179 24% 12%)" opacity="0.85"/><rect x="388.0" y="399.2" width="19.3" height="15.8" rx="1" fill="hsl(179 24% 12%)" opacity="0.85"/><rect x="414.3" y="399.2" width="19.3" height="15.8" rx="1" fill="hsl(179 24% 12%)" opacity="0.85"/><rect x="440.7" y="399.2" width="19.3" height="15.8" rx="1" fill="#4fd1c5" opacity="0.44"/><polygon points="682,142 720,126 720,406 682,422" fill="url(#side)"/><rect x="540" y="142" width="142" height="280" fill="url(#face)"/><rect x="540" y="163.3" width="142" height="1.4" fill="hsl(179 22% 9%)" opacity="0.7"/><rect x="549.0" y="147.0" width="17.8" height="11.3" rx="1" fill="hsl(179 24% 12%)" opacity="0.85"/><rect x="573.8" y="147.0" width="17.8" height="11.3" rx="1" fill="hsl(179 24% 12%)" opacity="0.85"/><rect x="598.6" y="147.0" width="17.8" height="11.3" rx="1" fill="hsl(179 24% 12%)" opacity="0.85"/><rect x="623.4" y="147.0" width="17.8" height="11.3" rx="1" fill="hsl(179 24% 12%)" opacity="0.85"/><rect x="648.2" y="147.0" width="17.8" height="11.3" rx="1" fill="hsl(179 24% 12%)" opacity="0.85"/><rect x="540" y="186.7" width="142" height="1.4" fill="hsl(179 22% 9%)" opacity="0.7"/><rect x="549.0" y="170.3" width="17.8" height="11.3" rx="1" fill="hsl(179 24% 12%)" opacity="0.85"/><rect x="573.8" y="170.3" width="17.8" height="11.3" rx="1" fill="hsl(179 24% 12%)" opacity="0.85"/><rect x="598.6" y="170.3" width="17.8" height="11.3" rx="1" fill="hsl(179 24% 12%)" opacity="0.85"/><rect x="623.4" y="170.3" width="17.8" height="11.3" rx="1" fill="hsl(179 24% 12%)" opacity="0.85"/><rect x="648.2" y="170.3" width="17.8" height="11.3" rx="1" fill="#4fd1c5" opacity="0.43"/><rect x="540" y="210.0" width="142" height="1.4" fill="hsl(179 22% 9%)" opacity="0.7"/><rect x="549.0" y="193.7" width="17.8" height="11.3" rx="1" fill="#4fd1c5" opacity="0.42"/><rect x="573.8" y="193.7" width="17.8" height="11.3" rx="1" fill="hsl(179 24% 12%)" opacity="0.85"/><rect x="598.6" y="193.7" width="17.8" height="11.3" rx="1" fill="hsl(179 24% 12%)" opacity="0.85"/><rect x="623.4" y="193.7" width="17.8" height="11.3" rx="1" fill="hsl(179 24% 12%)" opacity="0.85"/><rect x="648.2" y="193.7" width="17.8" height="11.3" rx="1" fill="#4fd1c5" opacity="0.70"/><rect x="540" y="233.3" width="142" height="1.4" fill="hsl(179 22% 9%)" opacity="0.7"/><rect x="549.0" y="217.0" width="17.8" height="11.3" rx="1" fill="hsl(179 24% 12%)" opacity="0.85"/><rect x="573.8" y="217.0" width="17.8" height="11.3" rx="1" fill="hsl(179 24% 12%)" opacity="0.85"/><rect x="598.6" y="217.0" width="17.8" height="11.3" rx="1" fill="hsl(179 24% 12%)" opacity="0.85"/><rect x="623.4" y="217.0" width="17.8" height="11.3" rx="1" fill="hsl(179 24% 12%)" opacity="0.85"/><rect x="648.2" y="217.0" width="17.8" height="11.3" rx="1" fill="#4fd1c5" opacity="0.67"/><rect x="540" y="256.7" width="142" height="1.4" fill="hsl(179 22% 9%)" opacity="0.7"/><rect x="549.0" y="240.3" width="17.8" height="11.3" rx="1" fill="hsl(179 24% 12%)" opacity="0.85"/><rect x="573.8" y="240.3" width="17.8" height="11.3" rx="1" fill="hsl(179 24% 12%)" opacity="0.85"/><rect x="598.6" y="240.3" width="17.8" height="11.3" rx="1" fill="hsl(179 24% 12%)" opacity="0.85"/><rect x="623.4" y="240.3" width="17.8" height="11.3" rx="1" fill="hsl(179 24% 12%)" opacity="0.85"/><rect x="648.2" y="240.3" width="17.8" height="11.3" rx="1" fill="#4fd1c5" opacity="0.36"/><rect x="540" y="280.0" width="142" height="1.4" fill="hsl(179 22% 9%)" opacity="0.7"/><rect x="549.0" y="263.7" width="17.8" height="11.3" rx="1" fill="#4fd1c5" opacity="0.59"/><rect x="573.8" y="263.7" width="17.8" height="11.3" rx="1" fill="#4fd1c5" opacity="0.76"/><rect x="598.6" y="263.7" width="17.8" height="11.3" rx="1" fill="hsl(179 24% 12%)" opacity="0.85"/><rect x="623.4" y="263.7" width="17.8" height="11.3" rx="1" fill="hsl(179 24% 12%)" opacity="0.85"/><rect x="648.2" y="263.7" width="17.8" height="11.3" rx="1" fill="hsl(179 24% 12%)" opacity="0.85"/><rect x="540" y="303.3" width="142" height="1.4" fill="hsl(179 22% 9%)" opacity="0.7"/><rect x="549.0" y="287.0" width="17.8" height="11.3" rx="1" fill="#4fd1c5" opacity="0.63"/><rect x="573.8" y="287.0" width="17.8" height="11.3" rx="1" fill="hsl(179 24% 12%)" opacity="0.85"/><rect x="598.6" y="287.0" width="17.8" height="11.3" rx="1" fill="hsl(179 24% 12%)" opacity="0.85"/><rect x="623.4" y="287.0" width="17.8" height="11.3" rx="1" fill="hsl(179 24% 12%)" opacity="0.85"/><rect x="648.2" y="287.0" width="17.8" height="11.3" rx="1" fill="#4fd1c5" opacity="0.75"/><rect x="540" y="326.7" width="142" height="1.4" fill="hsl(179 22% 9%)" opacity="0.7"/><rect x="549.0" y="310.3" width="17.8" height="11.3" rx="1" fill="hsl(179 24% 12%)" opacity="0.85"/><rect x="573.8" y="310.3" width="17.8" height="11.3" rx="1" fill="hsl(179 24% 12%)" opacity="0.85"/><rect x="598.6" y="310.3" width="17.8" height="11.3" rx="1" fill="hsl(179 24% 12%)" opacity="0.85"/><rect x="623.4" y="310.3" width="17.8" height="11.3" rx="1" fill="hsl(179 24% 12%)" opacity="0.85"/><rect x="648.2" y="310.3" width="17.8" height="11.3" rx="1" fill="hsl(179 24% 12%)" opacity="0.85"/><rect x="540" y="350.0" width="142" height="1.4" fill="hsl(179 22% 9%)" opacity="0.7"/><rect x="549.0" y="333.7" width="17.8" height="11.3" rx="1" fill="#4fd1c5" opacity="0.80"/><rect x="573.8" y="333.7" width="17.8" height="11.3" rx="1" fill="#4fd1c5" opacity="0.46"/><rect x="598.6" y="333.7" width="17.8" height="11.3" rx="1" fill="hsl(179 24% 12%)" opacity="0.85"/><rect x="623.4" y="333.7" width="17.8" height="11.3" rx="1" fill="hsl(179 24% 12%)" opacity="0.85"/><rect x="648.2" y="333.7" width="17.8" height="11.3" rx="1" fill="#4fd1c5" opacity="0.77"/><rect x="540" y="373.3" width="142" height="1.4" fill="hsl(179 22% 9%)" opacity="0.7"/><rect x="549.0" y="357.0" width="17.8" height="11.3" rx="1" fill="hsl(179 24% 12%)" opacity="0.85"/><rect x="573.8" y="357.0" width="17.8" height="11.3" rx="1" fill="hsl(179 24% 12%)" opacity="0.85"/><rect x="598.6" y="357.0" width="17.8" height="11.3" rx="1" fill="hsl(179 24% 12%)" opacity="0.85"/><rect x="623.4" y="357.0" width="17.8" height="11.3" rx="1" fill="#4fd1c5" opacity="0.46"/><rect x="648.2" y="357.0" width="17.8" height="11.3" rx="1" fill="hsl(179 24% 12%)" opacity="0.85"/><rect x="540" y="396.7" width="142" height="1.4" fill="hsl(179 22% 9%)" opacity="0.7"/><rect x="549.0" y="380.3" width="17.8" height="11.3" rx="1" fill="hsl(179 24% 12%)" opacity="0.85"/><rect x="573.8" y="380.3" width="17.8" height="11.3" rx="1" fill="hsl(179 24% 12%)" opacity="0.85"/><rect x="598.6" y="380.3" width="17.8" height="11.3" rx="1" fill="hsl(179 24% 12%)" opacity="0.85"/><rect x="623.4" y="380.3" width="17.8" height="11.3" rx="1" fill="#4fd1c5" opacity="0.49"/><rect x="648.2" y="380.3" width="17.8" height="11.3" rx="1" fill="hsl(179 24% 12%)" opacity="0.85"/><rect x="540" y="420.0" width="142" height="1.4" fill="hsl(179 22% 9%)" opacity="0.7"/><rect x="549.0" y="403.7" width="17.8" height="11.3" rx="1" fill="#4fd1c5" opacity="0.65"/><rect x="573.8" y="403.7" width="17.8" height="11.3" rx="1" fill="hsl(179 24% 12%)" opacity="0.85"/><rect x="598.6" y="403.7" width="17.8" height="11.3" rx="1" fill="#4fd1c5" opacity="0.53"/><rect x="623.4" y="403.7" width="17.8" height="11.3" rx="1" fill="hsl(179 24% 12%)" opacity="0.85"/><rect x="648.2" y="403.7" width="17.8" height="11.3" rx="1" fill="hsl(179 24% 12%)" opacity="0.85"/><rect x="0" y="422" width="800" height="58" fill="hsl(179 30% 6%)"/><rect x="0" y="422" width="800" height="1" fill="#4fd1c5" opacity="0.18"/><text x="20" y="462" font-family="system-ui, sans-serif" font-size="13" fill="#eef5f0" opacity="0.5">Generated illustration · not a photograph of this property</text></svg>