<svg xmlns="http://www.w3.org/2000/svg" viewBox="0 0 800 480" width="800" height="480" role="img" aria-label="Generated architectural illustration for 2 BHK in Verdant Canopy"><defs><linearGradient id="sky" x1="0" y1="0" x2="0" y2="1"><stop offset="0%" stop-color="hsl(174 34% 13%)"/><stop offset="100%" stop-color="hsl(180 40% 7%)"/></linearGradient><linearGradient id="glow" x1="0" y1="0" x2="1" y2="1"><stop offset="0%" stop-color="#4fd1c5" stop-opacity="0.22"/><stop offset="100%" stop-color="#4fd1c5" stop-opacity="0"/></linearGradient><linearGradient id="face" x1="0" y1="0" x2="1" y2="0"><stop offset="0%" stop-color="hsl(174 26% 17%)"/><stop offset="100%" stop-color="hsl(174 30% 26%)"/></linearGradient><linearGradient id="side" x1="0" y1="0" x2="1" y2="0"><stop offset="0%" stop-color="hsl(174 30% 11%)"/><stop offset="100%" stop-color="hsl(174 28% 15%)"/></linearGradient></defs><rect width="800" height="480" fill="url(#sky)"/><circle cx="624" cy="96" r="210" fill="url(#glow)"/><polygon points="224,83 258,67 258,406 224,422" fill="url(#side)"/><rect x="96" y="83" width="128" height="339" fill="url(#face)"/><rect x="96" y="97.1" width="128" height="1.4" fill="hsl(174 22% 9%)" opacity="0.7"/><rect x="105.0" y="88.0" width="20.5" height="4.1" rx="1" fill="hsl(174 24% 12%)" opacity="0.85"/><rect x="132.5" y="88.0" width="20.5" height="4.1" rx="1" fill="hsl(174 24% 12%)" opacity="0.85"/><rect x="160.0" y="88.0" width="20.5" height="4.1" rx="1" fill="hsl(174 24% 12%)" opacity="0.85"/><rect x="187.5" y="88.0" width="20.5" height="4.1" rx="1" fill="#4fd1c5" opacity="0.63"/><rect x="96" y="113.3" width="128" height="1.4" fill="hsl(174 22% 9%)" opacity="0.7"/><rect x="105.0" y="104.1" width="20.5" height="4.1" rx="1" fill="hsl(174 24% 12%)" opacity="0.85"/><rect x="132.5" y="104.1" width="20.5" height="4.1" rx="1" fill="hsl(174 24% 12%)" opacity="0.85"/><rect x="160.0" y="104.1" width="20.5" height="4.1" rx="1" fill="hsl(174 24% 12%)" opacity="0.85"/><rect x="187.5" y="104.1" width="20.5" height="4.1" rx="1" fill="hsl(174 24% 12%)" opacity="0.85"/><rect x="96" y="129.4" width="128" height="1.4" fill="hsl(174 22% 9%)" opacity="0.7"/><rect x="105.0" y="120.3" width="20.5" height="4.1" rx="1" fill="hsl(174 24% 12%)" opacity="0.85"/><rect x="132.5" y="120.3" width="20.5" height="4.1" rx="1" fill="hsl(174 24% 12%)" opacity="0.85"/><rect x="160.0" y="120.3" width="20.5" height="4.1" rx="1" fill="hsl(174 24% 12%)" opacity="0.85"/><rect x="187.5" y="120.3" width="20.5" height="4.1" rx="1" fill="hsl(174 24% 12%)" opacity="0.85"/><rect x="96" y="145.6" width="128" height="1.4" fill="hsl(174 22% 9%)" opacity="0.7"/><rect x="105.0" y="136.4" width="20.5" height="4.1" rx="1" fill="hsl(174 24% 12%)" opacity="0.85"/><rect x="132.5" y="136.4" width="20.5" height="4.1" rx="1" fill="#4fd1c5" opacity="0.72"/><rect x="160.0" y="136.4" width="20.5" height="4.1" rx="1" fill="hsl(174 24% 12%)" opacity="0.85"/><rect x="187.5" y="136.4" width="20.5" height="4.1" rx="1" fill="hsl(174 24% 12%)" opacity="0.85"/><rect x="96" y="161.7" width="128" height="1.4" fill="hsl(174 22% 9%)" opacity="0.7"/><rect x="105.0" y="152.6" width="20.5" height="4.1" rx="1" fill="#4fd1c5" opacity="0.50"/><rect x="132.5" y="152.6" width="20.5" height="4.1" rx="1" fill="hsl(174 24% 12%)" opacity="0.85"/><rect x="160.0" y="152.6" width="20.5" height="4.1" rx="1" fill="hsl(174 24% 12%)" opacity="0.85"/><rect x="187.5" y="152.6" width="20.5" height="4.1" rx="1" fill="#4fd1c5" opacity="0.62"/><rect x="96" y="177.9" width="128" height="1.4" fill="hsl(174 22% 9%)" opacity="0.7"/><rect x="105.0" y="168.7" width="20.5" height="4.1" rx="1" fill="hsl(174 24% 12%)" opacity="0.85"/><rect x="132.5" y="168.7" width="20.5" height="4.1" rx="1" fill="hsl(174 24% 12%)" opacity="0.85"/><rect x="160.0" y="168.7" width="20.5" height="4.1" rx="1" fill="hsl(174 24% 12%)" opacity="0.85"/><rect x="187.5" y="168.7" width="20.5" height="4.1" rx="1" fill="hsl(174 24% 12%)" opacity="0.85"/><rect x="96" y="194.0" width="128" height="1.4" fill="hsl(174 22% 9%)" opacity="0.7"/><rect x="105.0" y="184.9" width="20.5" height="4.1" rx="1" fill="#4fd1c5" opacity="0.44"/><rect x="132.5" y="184.9" width="20.5" height="4.1" rx="1" fill="hsl(174 24% 12%)" opacity="0.85"/><rect x="160.0" y="184.9" width="20.5" height="4.1" rx="1" fill="hsl(174 24% 12%)" opacity="0.85"/><rect x="187.5" y="184.9" width="20.5" height="4.1" rx="1" fill="#4fd1c5" opacity="0.64"/><rect x="96" y="210.1" width="128" height="1.4" fill="hsl(174 22% 9%)" opacity="0.7"/><rect x="105.0" y="201.0" width="20.5" height="4.1" rx="1" fill="hsl(174 24% 12%)" opacity="0.85"/><rect x="132.5" y="201.0" width="20.5" height="4.1" rx="1" fill="hsl(174 24% 12%)" opacity="0.85"/><rect x="160.0" y="201.0" width="20.5" height="4.1" rx="1" fill="hsl(174 24% 12%)" opacity="0.85"/><rect x="187.5" y="201.0" width="20.5" height="4.1" rx="1" fill="hsl(174 24% 12%)" opacity="0.85"/><rect x="96" y="226.3" width="128" height="1.4" fill="hsl(174 22% 9%)" opacity="0.7"/><rect x="105.0" y="217.1" width="20.5" height="4.1" rx="1" fill="#4fd1c5" opacity="0.62"/><rect x="132.5" y="217.1" width="20.5" height="4.1" rx="1" fill="hsl(174 24% 12%)" opacity="0.85"/><rect x="160.0" y="217.1" width="20.5" height="4.1" rx="1" fill="hsl(174 24% 12%)" opacity="0.85"/><rect x="187.5" y="217.1" width="20.5" height="4.1" rx="1" fill="hsl(174 24% 12%)" opacity="0.85"/><rect x="96" y="242.4" width="128" height="1.4" fill="hsl(174 22% 9%)" opacity="0.7"/><rect x="105.0" y="233.3" width="20.5" height="4.1" rx="1" fill="#4fd1c5" opacity="0.51"/><rect x="132.5" y="233.3" width="20.5" height="4.1" rx="1" fill="hsl(174 24% 12%)" opacity="0.85"/><rect x="160.0" y="233.3" width="20.5" height="4.1" rx="1" fill="hsl(174 24% 12%)" opacity="0.85"/><rect x="187.5" y="233.3" width="20.5" height="4.1" rx="1" fill="hsl(174 24% 12%)" opacity="0.85"/><rect x="96" y="258.6" width="128" height="1.4" fill="hsl(174 22% 9%)" opacity="0.7"/><rect x="105.0" y="249.4" width="20.5" height="4.1" rx="1" fill="#4fd1c5" opacity="0.78"/><rect x="132.5" y="249.4" width="20.5" height="4.1" rx="1" fill="#4fd1c5" opacity="0.76"/><rect x="160.0" y="249.4" width="20.5" height="4.1" rx="1" fill="hsl(174 24% 12%)" opacity="0.85"/><rect x="187.5" y="249.4" width="20.5" height="4.1" rx="1" fill="hsl(174 24% 12%)" opacity="0.85"/><rect x="96" y="274.7" width="128" height="1.4" fill="hsl(174 22% 9%)" opacity="0.7"/><rect x="105.0" y="265.6" width="20.5" height="4.1" rx="1" fill="hsl(174 24% 12%)" opacity="0.85"/><rect x="132.5" y="265.6" width="20.5" height="4.1" rx="1" fill="#4fd1c5" opacity="0.75"/><rect x="160.0" y="265.6" width="20.5" height="4.1" rx="1" fill="hsl(174 24% 12%)" opacity="0.85"/><rect x="187.5" y="265.6" width="20.5" height="4.1" rx="1" fill="hsl(174 24% 12%)" opacity="0.85"/><rect x="96" y="290.9" width="128" height="1.4" fill="hsl(174 22% 9%)" opacity="0.7"/><rect x="105.0" y="281.7" width="20.5" height="4.1" rx="1" fill="#4fd1c5" opacity="0.50"/><rect x="132.5" y="281.7" width="20.5" height="4.1" rx="1" fill="hsl(174 24% 12%)" opacity="0.85"/><rect x="160.0" y="281.7" width="20.5" height="4.1" rx="1" fill="hsl(174 24% 12%)" opacity="0.85"/><rect x="187.5" y="281.7" width="20.5" height="4.1" rx="1" fill="hsl(174 24% 12%)" opacity="0.85"/><rect x="96" y="307.0" width="128" height="1.4" fill="hsl(174 22% 9%)" opacity="0.7"/><rect x="105.0" y="297.9" width="20.5" height="4.1" rx="1" fill="hsl(174 24% 12%)" opacity="0.85"/><rect x="132.5" y="297.9" width="20.5" height="4.1" rx="1" fill="#4fd1c5" opacity="0.79"/><rect x="160.0" y="297.9" width="20.5" height="4.1" rx="1" fill="hsl(174 24% 12%)" opacity="0.85"/><rect x="187.5" y="297.9" width="20.5" height="4.1" rx="1" fill="#4fd1c5" opacity="0.55"/><rect x="96" y="323.1" width="128" height="1.4" fill="hsl(174 22% 9%)" opacity="0.7"/><rect x="105.0" y="314.0" width="20.5" height="4.1" rx="1" fill="hsl(174 24% 12%)" opacity="0.85"/><rect x="132.5" y="314.0" width="20.5" height="4.1" rx="1" fill="hsl(174 24% 12%)" opacity="0.85"/><rect x="160.0" y="314.0" width="20.5" height="4.1" rx="1" fill="hsl(174 24% 12%)" opacity="0.85"/><rect x="187.5" y="314.0" width="20.5" height="4.1" rx="1" fill="hsl(174 24% 12%)" opacity="0.85"/><rect x="96" y="339.3" width="128" height="1.4" fill="hsl(174 22% 9%)" opacity="0.7"/><rect x="105.0" y="330.1" width="20.5" height="4.1" rx="1" fill="hsl(174 24% 12%)" opacity="0.85"/><rect x="132.5" y="330.1" width="20.5" height="4.1" rx="1" fill="hsl(174 24% 12%)" opacity="0.85"/><rect x="160.0" y="330.1" width="20.5" height="4.1" rx="1" fill="hsl(174 24% 12%)" opacity="0.85"/><rect x="187.5" y="330.1" width="20.5" height="4.1" rx="1" fill="hsl(174 24% 12%)" opacity="0.85"/><rect x="96" y="355.4" width="128" height="1.4" fill="hsl(174 22% 9%)" opacity="0.7"/><rect x="105.0" y="346.3" width="20.5" height="4.1" rx="1" fill="hsl(174 24% 12%)" opacity="0.85"/><rect x="132.5" y="346.3" width="20.5" height="4.1" rx="1" fill="hsl(174 24% 12%)" opacity="0.85"/><rect x="160.0" y="346.3" width="20.5" height="4.1" rx="1" fill="hsl(174 24% 12%)" opacity="0.85"/><rect x="187.5" y="346.3" width="20.5" height="4.1" rx="1" fill="hsl(174 24% 12%)" opacity="0.85"/><rect x="96" y="371.6" width="128" height="1.4" fill="hsl(174 22% 9%)" opacity="0.7"/><rect x="105.0" y="362.4" width="20.5" height="4.1" rx="1" fill="hsl(174 24% 12%)" opacity="0.85"/><rect x="132.5" y="362.4" width="20.5" height="4.1" rx="1" fill="hsl(174 24% 12%)" opacity="0.85"/><rect x="160.0" y="362.4" width="20.5" height="4.1" rx="1" fill="hsl(174 24% 12%)" opacity="0.85"/><rect x="187.5" y="362.4" width="20.5" height="4.1" rx="1" fill="hsl(174 24% 12%)" opacity="0.85"/><rect x="96" y="387.7" width="128" height="1.4" fill="hsl(174 22% 9%)" opacity="0.7"/><rect x="105.0" y="378.6" width="20.5" height="4.1" rx="1" fill="hsl(174 24% 12%)" opacity="0.85"/><rect x="132.5" y="378.6" width="20.5" height="4.1" rx="1" fill="hsl(174 24% 12%)" opacity="0.85"/><rect x="160.0" y="378.6" width="20.5" height="4.1" rx="1" fill="hsl(174 24% 12%)" opacity="0.85"/><rect x="187.5" y="378.6" width="20.5" height="4.1" rx="1" fill="hsl(174 24% 12%)" opacity="0.85"/><rect x="96" y="403.9" width="128" height="1.4" fill="hsl(174 22% 9%)" opacity="0.7"/><rect x="105.0" y="394.7" width="20.5" height="4.1" rx="1" fill="hsl(174 24% 12%)" opacity="0.85"/><rect x="132.5" y="394.7" width="20.5" height="4.1" rx="1" fill="#4fd1c5" opacity="0.38"/><rect x="160.0" y="394.7" width="20.5" height="4.1" rx="1" fill="hsl(174 24% 12%)" opacity="0.85"/><rect x="187.5" y="394.7" width="20.5" height="4.1" rx="1" fill="hsl(174 24% 12%)" opacity="0.85"/><rect x="96" y="420.0" width="128" height="1.4" fill="hsl(174 22% 9%)" opacity="0.7"/><rect x="105.0" y="410.9" width="20.5" height="4.1" rx="1" fill="#4fd1c5" opacity="0.40"/><rect x="132.5" y="410.9" width="20.5" height="4.1" rx="1" fill="#4fd1c5" opacity="0.53"/><rect x="160.0" y="410.9" width="20.5" height="4.1" rx="1" fill="hsl(174 24% 12%)" opacity="0.85"/><rect x="187.5" y="410.9" width="20.5" height="4.1" rx="1" fill="#4fd1c5" opacity="0.69"/><polygon points="476,-20 520,-36 520,406 476,422" fill="url(#side)"/><rect x="300" y="-20" width="176" height="442" fill="url(#face)"/><rect x="300" y="-1.0" width="176" height="1.4" fill="hsl(174 22% 9%)" opacity="0.7"/><rect x="309.0" y="-15.0" width="19.3" height="9.0" rx="1" fill="#4fd1c5" opacity="0.63"/><rect x="335.3" y="-15.0" width="19.3" height="9.0" rx="1" fill="hsl(174 24% 12%)" opacity="0.85"/><rect x="361.7" y="-15.0" width="19.3" height="9.0" rx="1" fill="hsl(174 24% 12%)" opacity="0.85"/><rect x="388.0" y="-15.0" width="19.3" height="9.0" rx="1" fill="hsl(174 24% 12%)" opacity="0.85"/><rect x="414.3" y="-15.0" width="19.3" height="9.0" rx="1" fill="hsl(174 24% 12%)" opacity="0.85"/><rect x="440.7" y="-15.0" width="19.3" height="9.0" rx="1" fill="#4fd1c5" opacity="0.36"/><rect x="300" y="20.1" width="176" height="1.4" fill="hsl(174 22% 9%)" opacity="0.7"/><rect x="309.0" y="6.0" width="19.3" height="9.0" rx="1" fill="#4fd1c5" opacity="0.68"/><rect x="335.3" y="6.0" width="19.3" height="9.0" rx="1" fill="hsl(174 24% 12%)" opacity="0.85"/><rect x="361.7" y="6.0" width="19.3" height="9.0" rx="1" fill="hsl(174 24% 12%)" opacity="0.85"/><rect x="388.0" y="6.0" width="19.3" height="9.0" rx="1" fill="#4fd1c5" opacity="0.36"/><rect x="414.3" y="6.0" width="19.3" height="9.0" rx="1" fill="hsl(174 24% 12%)" opacity="0.85"/><rect x="440.7" y="6.0" width="19.3" height="9.0" rx="1" fill="#4fd1c5" opacity="0.59"/><rect x="300" y="41.1" width="176" height="1.4" fill="hsl(174 22% 9%)" opacity="0.7"/><rect x="309.0" y="27.1" width="19.3" height="9.0" rx="1" fill="hsl(174 24% 12%)" opacity="0.85"/><rect x="335.3" y="27.1" width="19.3" height="9.0" rx="1" fill="hsl(174 24% 12%)" opacity="0.85"/><rect x="361.7" y="27.1" width="19.3" height="9.0" rx="1" fill="#4fd1c5" opacity="0.56"/><rect x="388.0" y="27.1" width="19.3" height="9.0" rx="1" fill="#4fd1c5" opacity="0.37"/><rect x="414.3" y="27.1" width="19.3" height="9.0" rx="1" fill="#4fd1c5" opacity="0.74"/><rect x="440.7" y="27.1" width="19.3" height="9.0" rx="1" fill="hsl(174 24% 12%)" opacity="0.85"/><rect x="300" y="62.2" width="176" height="1.4" fill="hsl(174 22% 9%)" opacity="0.7"/><rect x="309.0" y="48.1" width="19.3" height="9.0" rx="1" fill="hsl(174 24% 12%)" opacity="0.85"/><rect x="335.3" y="48.1" width="19.3" height="9.0" rx="1" fill="hsl(174 24% 12%)" opacity="0.85"/><rect x="361.7" y="48.1" width="19.3" height="9.0" rx="1" fill="hsl(174 24% 12%)" opacity="0.85"/><rect x="388.0" y="48.1" width="19.3" height="9.0" rx="1" fill="hsl(174 24% 12%)" opacity="0.85"/><rect x="414.3" y="48.1" width="19.3" height="9.0" rx="1" fill="hsl(174 24% 12%)" opacity="0.85"/><rect x="440.7" y="48.1" width="19.3" height="9.0" rx="1" fill="hsl(174 24% 12%)" opacity="0.85"/><rect x="300" y="83.2" width="176" height="1.4" fill="hsl(174 22% 9%)" opacity="0.7"/><rect x="309.0" y="69.2" width="19.3" height="9.0" rx="1" fill="#4fd1c5" opacity="0.35"/><rect x="335.3" y="69.2" width="19.3" height="9.0" rx="1" fill="#4fd1c5" opacity="0.59"/><rect x="361.7" y="69.2" width="19.3" height="9.0" rx="1" fill="hsl(174 24% 12%)" opacity="0.85"/><rect x="388.0" y="69.2" width="19.3" height="9.0" rx="1" fill="#4fd1c5" opacity="0.60"/><rect x="414.3" y="69.2" width="19.3" height="9.0" rx="1" fill="#4fd1c5" opacity="0.49"/><rect x="440.7" y="69.2" width="19.3" height="9.0" rx="1" fill="hsl(174 24% 12%)" opacity="0.85"/><rect x="300" y="104.3" width="176" height="1.4" fill="hsl(174 22% 9%)" opacity="0.7"/><rect x="309.0" y="90.2" width="19.3" height="9.0" rx="1" fill="#4fd1c5" opacity="0.78"/><rect x="335.3" y="90.2" width="19.3" height="9.0" rx="1" fill="hsl(174 24% 12%)" opacity="0.85"/><rect x="361.7" y="90.2" width="19.3" height="9.0" rx="1" fill="#4fd1c5" opacity="0.53"/><rect x="388.0" y="90.2" width="19.3" height="9.0" rx="1" fill="hsl(174 24% 12%)" opacity="0.85"/><rect x="414.3" y="90.2" width="19.3" height="9.0" rx="1" fill="#4fd1c5" opacity="0.61"/><rect x="440.7" y="90.2" width="19.3" height="9.0" rx="1" fill="#4fd1c5" opacity="0.75"/><rect x="300" y="125.3" width="176" height="1.4" fill="hsl(174 22% 9%)" opacity="0.7"/><rect x="309.0" y="111.3" width="19.3" height="9.0" rx="1" fill="hsl(174 24% 12%)" opacity="0.85"/><rect x="335.3" y="111.3" width="19.3" height="9.0" rx="1" fill="hsl(174 24% 12%)" opacity="0.85"/><rect x="361.7" y="111.3" width="19.3" height="9.0" rx="1" fill="hsl(174 24% 12%)" opacity="0.85"/><rect x="388.0" y="111.3" width="19.3" height="9.0" rx="1" fill="hsl(174 24% 12%)" opacity="0.85"/><rect x="414.3" y="111.3" width="19.3" height="9.0" rx="1" fill="#4fd1c5" opacity="0.59"/><rect x="440.7" y="111.3" width="19.3" height="9.0" rx="1" fill="hsl(174 24% 12%)" opacity="0.85"/><rect x="300" y="146.4" width="176" height="1.4" fill="hsl(174 22% 9%)" opacity="0.7"/><rect x="309.0" y="132.3" width="19.3" height="9.0" rx="1" fill="hsl(174 24% 12%)" opacity="0.85"/><rect x="335.3" y="132.3" width="19.3" height="9.0" rx="1" fill="#4fd1c5" opacity="0.48"/><rect x="361.7" y="132.3" width="19.3" height="9.0" rx="1" fill="#4fd1c5" opacity="0.59"/><rect x="388.0" y="132.3" width="19.3" height="9.0" rx="1" fill="hsl(174 24% 12%)" opacity="0.85"/><rect x="414.3" y="132.3" width="19.3" height="9.0" rx="1" fill="hsl(174 24% 12%)" opacity="0.85"/><rect x="440.7" y="132.3" width="19.3" height="9.0" rx="1" fill="hsl(174 24% 12%)" opacity="0.85"/><rect x="300" y="167.4" width="176" height="1.4" fill="hsl(174 22% 9%)" opacity="0.7"/><rect x="309.0" y="153.4" width="19.3" height="9.0" rx="1" fill="hsl(174 24% 12%)" opacity="0.85"/><rect x="335.3" y="153.4" width="19.3" height="9.0" rx="1" fill="hsl(174 24% 12%)" opacity="0.85"/><rect x="361.7" y="153.4" width="19.3" height="9.0" rx="1" fill="hsl(174 24% 12%)" opacity="0.85"/><rect x="388.0" y="153.4" width="19.3" height="9.0" rx="1" fill="hsl(174 24% 12%)" opacity="0.85"/><rect x="414.3" y="153.4" width="19.3" height="9.0" rx="1" fill="#4fd1c5" opacity="0.72"/><rect x="440.7" y="153.4" width="19.3" height="9.0" rx="1" fill="#4fd1c5" opacity="0.71"/><rect x="300" y="188.5" width="176" height="1.4" fill="hsl(174 22% 9%)" opacity="0.7"/><rect x="309.0" y="174.4" width="19.3" height="9.0" rx="1" fill="hsl(174 24% 12%)" opacity="0.85"/><rect x="335.3" y="174.4" width="19.3" height="9.0" rx="1" fill="#4fd1c5" opacity="0.50"/><rect x="361.7" y="174.4" width="19.3" height="9.0" rx="1" fill="hsl(174 24% 12%)" opacity="0.85"/><rect x="388.0" y="174.4" width="19.3" height="9.0" rx="1" fill="#4fd1c5" opacity="0.43"/><rect x="414.3" y="174.4" width="19.3" height="9.0" rx="1" fill="#4fd1c5" opacity="0.42"/><rect x="440.7" y="174.4" width="19.3" height="9.0" rx="1" fill="hsl(174 24% 12%)" opacity="0.85"/><rect x="300" y="209.5" width="176" height="1.4" fill="hsl(174 22% 9%)" opacity="0.7"/><rect x="309.0" y="195.5" width="19.3" height="9.0" rx="1" fill="hsl(174 24% 12%)" opacity="0.85"/><rect x="335.3" y="195.5" width="19.3" height="9.0" rx="1" fill="hsl(174 24% 12%)" opacity="0.85"/><rect x="361.7" y="195.5" width="19.3" height="9.0" rx="1" fill="hsl(174 24% 12%)" opacity="0.85"/><rect x="388.0" y="195.5" width="19.3" height="9.0" rx="1" fill="hsl(174 24% 12%)" opacity="0.85"/><rect x="414.3" y="195.5" width="19.3" height="9.0" rx="1" fill="hsl(174 24% 12%)" opacity="0.85"/><rect x="440.7" y="195.5" width="19.3" height="9.0" rx="1" fill="#4fd1c5" opacity="0.39"/><rect x="300" y="230.6" width="176" height="1.4" fill="hsl(174 22% 9%)" opacity="0.7"/><rect x="309.0" y="216.5" width="19.3" height="9.0" rx="1" fill="hsl(174 24% 12%)" opacity="0.85"/><rect x="335.3" y="216.5" width="19.3" height="9.0" rx="1" fill="#4fd1c5" opacity="0.78"/><rect x="361.7" y="216.5" width="19.3" height="9.0" rx="1" fill="hsl(174 24% 12%)" opacity="0.85"/><rect x="388.0" y="216.5" width="19.3" height="9.0" rx="1" fill="#4fd1c5" opacity="0.68"/><rect x="414.3" y="216.5" width="19.3" height="9.0" rx="1" fill="hsl(174 24% 12%)" opacity="0.85"/><rect x="440.7" y="216.5" width="19.3" height="9.0" rx="1" fill="hsl(174 24% 12%)" opacity="0.85"/><rect x="300" y="251.6" width="176" height="1.4" fill="hsl(174 22% 9%)" opacity="0.7"/><rect x="309.0" y="237.6" width="19.3" height="9.0" rx="1" fill="#4fd1c5" opacity="0.72"/><rect x="335.3" y="237.6" width="19.3" height="9.0" rx="1" fill="hsl(174 24% 12%)" opacity="0.85"/><rect x="361.7" y="237.6" width="19.3" height="9.0" rx="1" fill="#4fd1c5" opacity="0.38"/><rect x="388.0" y="237.6" width="19.3" height="9.0" rx="1" fill="hsl(174 24% 12%)" opacity="0.85"/><rect x="414.3" y="237.6" width="19.3" height="9.0" rx="1" fill="#4fd1c5" opacity="0.80"/><rect x="440.7" y="237.6" width="19.3" height="9.0" rx="1" fill="#4fd1c5" opacity="0.50"/><rect x="300" y="272.7" width="176" height="1.4" fill="hsl(174 22% 9%)" opacity="0.7"/><rect x="309.0" y="258.6" width="19.3" height="9.0" rx="1" fill="hsl(174 24% 12%)" opacity="0.85"/><rect x="335.3" y="258.6" width="19.3" height="9.0" rx="1" fill="#4fd1c5" opacity="0.71"/><rect x="361.7" y="258.6" width="19.3" height="9.0" rx="1" fill="hsl(174 24% 12%)" opacity="0.85"/><rect x="388.0" y="258.6" width="19.3" height="9.0" rx="1" fill="hsl(174 24% 12%)" opacity="0.85"/><rect x="414.3" y="258.6" width="19.3" height="9.0" rx="1" fill="#4fd1c5" opacity="0.44"/><rect x="440.7" y="258.6" width="19.3" height="9.0" rx="1" fill="hsl(174 24% 12%)" opacity="0.85"/><rect x="300" y="293.7" width="176" height="1.4" fill="hsl(174 22% 9%)" opacity="0.7"/><rect x="309.0" y="279.7" width="19.3" height="9.0" rx="1" fill="hsl(174 24% 12%)" opacity="0.85"/><rect x="335.3" y="279.7" width="19.3" height="9.0" rx="1" fill="#4fd1c5" opacity="0.51"/><rect x="361.7" y="279.7" width="19.3" height="9.0" rx="1" fill="hsl(174 24% 12%)" opacity="0.85"/><rect x="388.0" y="279.7" width="19.3" height="9.0" rx="1" fill="hsl(174 24% 12%)" opacity="0.85"/><rect x="414.3" y="279.7" width="19.3" height="9.0" rx="1" fill="#4fd1c5" opacity="0.79"/><rect x="440.7" y="279.7" width="19.3" height="9.0" rx="1" fill="hsl(174 24% 12%)" opacity="0.85"/><rect x="300" y="314.8" width="176" height="1.4" fill="hsl(174 22% 9%)" opacity="0.7"/><rect x="309.0" y="300.7" width="19.3" height="9.0" rx="1" fill="#4fd1c5" opacity="0.59"/><rect x="335.3" y="300.7" width="19.3" height="9.0" rx="1" fill="hsl(174 24% 12%)" opacity="0.85"/><rect x="361.7" y="300.7" width="19.3" height="9.0" rx="1" fill="#4fd1c5" opacity="0.47"/><rect x="388.0" y="300.7" width="19.3" height="9.0" rx="1" fill="#4fd1c5" opacity="0.56"/><rect x="414.3" y="300.7" width="19.3" height="9.0" rx="1" fill="hsl(174 24% 12%)" opacity="0.85"/><rect x="440.7" y="300.7" width="19.3" height="9.0" rx="1" fill="hsl(174 24% 12%)" opacity="0.85"/><rect x="300" y="335.8" width="176" height="1.4" fill="hsl(174 22% 9%)" opacity="0.7"/><rect x="309.0" y="321.8" width="19.3" height="9.0" rx="1" fill="hsl(174 24% 12%)" opacity="0.85"/><rect x="335.3" y="321.8" width="19.3" height="9.0" rx="1" fill="#4fd1c5" opacity="0.77"/><rect x="361.7" y="321.8" width="19.3" height="9.0" rx="1" fill="hsl(174 24% 12%)" opacity="0.85"/><rect x="388.0" y="321.8" width="19.3" height="9.0" rx="1" fill="#4fd1c5" opacity="0.50"/><rect x="414.3" y="321.8" width="19.3" height="9.0" rx="1" fill="hsl(174 24% 12%)" opacity="0.85"/><rect x="440.7" y="321.8" width="19.3" height="9.0" rx="1" fill="#4fd1c5" opacity="0.71"/><rect x="300" y="356.9" width="176" height="1.4" fill="hsl(174 22% 9%)" opacity="0.7"/><rect x="309.0" y="342.8" width="19.3" height="9.0" rx="1" fill="hsl(174 24% 12%)" opacity="0.85"/><rect x="335.3" y="342.8" width="19.3" height="9.0" rx="1" fill="#4fd1c5" opacity="0.77"/><rect x="361.7" y="342.8" width="19.3" height="9.0" rx="1" fill="#4fd1c5" opacity="0.44"/><rect x="388.0" y="342.8" width="19.3" height="9.0" rx="1" fill="#4fd1c5" opacity="0.76"/><rect x="414.3" y="342.8" width="19.3" height="9.0" rx="1" fill="hsl(174 24% 12%)" opacity="0.85"/><rect x="440.7" y="342.8" width="19.3" height="9.0" rx="1" fill="hsl(174 24% 12%)" opacity="0.85"/><rect x="300" y="377.9" width="176" height="1.4" fill="hsl(174 22% 9%)" opacity="0.7"/><rect x="309.0" y="363.9" width="19.3" height="9.0" rx="1" fill="hsl(174 24% 12%)" opacity="0.85"/><rect x="335.3" y="363.9" width="19.3" height="9.0" rx="1" fill="hsl(174 24% 12%)" opacity="0.85"/><rect x="361.7" y="363.9" width="19.3" height="9.0" rx="1" fill="#4fd1c5" opacity="0.64"/><rect x="388.0" y="363.9" width="19.3" height="9.0" rx="1" fill="hsl(174 24% 12%)" opacity="0.85"/><rect x="414.3" y="363.9" width="19.3" height="9.0" rx="1" fill="hsl(174 24% 12%)" opacity="0.85"/><rect x="440.7" y="363.9" width="19.3" height="9.0" rx="1" fill="hsl(174 24% 12%)" opacity="0.85"/><rect x="300" y="399.0" width="176" height="1.4" fill="hsl(174 22% 9%)" opacity="0.7"/><rect x="309.0" y="384.9" width="19.3" height="9.0" rx="1" fill="hsl(174 24% 12%)" opacity="0.85"/><rect x="335.3" y="384.9" width="19.3" height="9.0" rx="1" fill="hsl(174 24% 12%)" opacity="0.85"/><rect x="361.7" y="384.9" width="19.3" height="9.0" rx="1" fill="hsl(174 24% 12%)" opacity="0.85"/><rect x="388.0" y="384.9" width="19.3" height="9.0" rx="1" fill="#4fd1c5" opacity="0.65"/><rect x="414.3" y="384.9" width="19.3" height="9.0" rx="1" fill="hsl(174 24% 12%)" opacity="0.85"/><rect x="440.7" y="384.9" width="19.3" height="9.0" rx="1" fill="#4fd1c5" opacity="0.35"/><rect x="300" y="420.0" width="176" height="1.4" fill="hsl(174 22% 9%)" opacity="0.7"/><rect x="309.0" y="406.0" width="19.3" height="9.0" rx="1" fill="#4fd1c5" opacity="0.70"/><rect x="335.3" y="406.0" width="19.3" height="9.0" rx="1" fill="#4fd1c5" opacity="0.68"/><rect x="361.7" y="406.0" width="19.3" height="9.0" rx="1" fill="hsl(174 24% 12%)" opacity="0.85"/><rect x="388.0" y="406.0" width="19.3" height="9.0" rx="1" fill="#4fd1c5" opacity="0.63"/><rect x="414.3" y="406.0" width="19.3" height="9.0" rx="1" fill="#4fd1c5" opacity="0.59"/><rect x="440.7" y="406.0" width="19.3" height="9.0" rx="1" fill="hsl(174 24% 12%)" opacity="0.85"/><polygon points="682,52 720,36 720,406 682,422" fill="url(#side)"/><rect x="540" y="52" width="142" height="370" fill="url(#face)"/><rect x="540" y="67.6" width="142" height="1.4" fill="hsl(174 22% 9%)" opacity="0.7"/><rect x="549.0" y="57.0" width="17.8" height="5.6" rx="1" fill="hsl(174 24% 12%)" opacity="0.85"/><rect x="573.8" y="57.0" width="17.8" height="5.6" rx="1" fill="hsl(174 24% 12%)" opacity="0.85"/><rect x="598.6" y="57.0" width="17.8" height="5.6" rx="1" fill="hsl(174 24% 12%)" opacity="0.85"/><rect x="623.4" y="57.0" width="17.8" height="5.6" rx="1" fill="hsl(174 24% 12%)" opacity="0.85"/><rect x="648.2" y="57.0" width="17.8" height="5.6" rx="1" fill="#4fd1c5" opacity="0.59"/><rect x="540" y="85.2" width="142" height="1.4" fill="hsl(174 22% 9%)" opacity="0.7"/><rect x="549.0" y="74.6" width="17.8" height="5.6" rx="1" fill="hsl(174 24% 12%)" opacity="0.85"/><rect x="573.8" y="74.6" width="17.8" height="5.6" rx="1" fill="hsl(174 24% 12%)" opacity="0.85"/><rect x="598.6" y="74.6" width="17.8" height="5.6" rx="1" fill="hsl(174 24% 12%)" opacity="0.85"/><rect x="623.4" y="74.6" width="17.8" height="5.6" rx="1" fill="hsl(174 24% 12%)" opacity="0.85"/><rect x="648.2" y="74.6" width="17.8" height="5.6" rx="1" fill="#4fd1c5" opacity="0.38"/><rect x="540" y="102.9" width="142" height="1.4" fill="hsl(174 22% 9%)" opacity="0.7"/><rect x="549.0" y="92.2" width="17.8" height="5.6" rx="1" fill="hsl(174 24% 12%)" opacity="0.85"/><rect x="573.8" y="92.2" width="17.8" height="5.6" rx="1" fill="hsl(174 24% 12%)" opacity="0.85"/><rect x="598.6" y="92.2" width="17.8" height="5.6" rx="1" fill="hsl(174 24% 12%)" opacity="0.85"/><rect x="623.4" y="92.2" width="17.8" height="5.6" rx="1" fill="hsl(174 24% 12%)" opacity="0.85"/><rect x="648.2" y="92.2" width="17.8" height="5.6" rx="1" fill="hsl(174 24% 12%)" opacity="0.85"/><rect x="540" y="120.5" width="142" height="1.4" fill="hsl(174 22% 9%)" opacity="0.7"/><rect x="549.0" y="109.9" width="17.8" height="5.6" rx="1" fill="#4fd1c5" opacity="0.75"/><rect x="573.8" y="109.9" width="17.8" height="5.6" rx="1" fill="#4fd1c5" opacity="0.39"/><rect x="598.6" y="109.9" width="17.8" height="5.6" rx="1" fill="hsl(174 24% 12%)" opacity="0.85"/><rect x="623.4" y="109.9" width="17.8" height="5.6" rx="1" fill="hsl(174 24% 12%)" opacity="0.85"/><rect x="648.2" y="109.9" width="17.8" height="5.6" rx="1" fill="hsl(174 24% 12%)" opacity="0.85"/><rect x="540" y="138.1" width="142" height="1.4" fill="hsl(174 22% 9%)" opacity="0.7"/><rect x="549.0" y="127.5" width="17.8" height="5.6" rx="1" fill="hsl(174 24% 12%)" opacity="0.85"/><rect x="573.8" y="127.5" width="17.8" height="5.6" rx="1" fill="hsl(174 24% 12%)" opacity="0.85"/><rect x="598.6" y="127.5" width="17.8" height="5.6" rx="1" fill="hsl(174 24% 12%)" opacity="0.85"/><rect x="623.4" y="127.5" width="17.8" height="5.6" rx="1" fill="hsl(174 24% 12%)" opacity="0.85"/><rect x="648.2" y="127.5" width="17.8" height="5.6" rx="1" fill="hsl(174 24% 12%)" opacity="0.85"/><rect x="540" y="155.7" width="142" height="1.4" fill="hsl(174 22% 9%)" opacity="0.7"/><rect x="549.0" y="145.1" width="17.8" height="5.6" rx="1" fill="hsl(174 24% 12%)" opacity="0.85"/><rect x="573.8" y="145.1" width="17.8" height="5.6" rx="1" fill="hsl(174 24% 12%)" opacity="0.85"/><rect x="598.6" y="145.1" width="17.8" height="5.6" rx="1" fill="hsl(174 24% 12%)" opacity="0.85"/><rect x="623.4" y="145.1" width="17.8" height="5.6" rx="1" fill="#4fd1c5" opacity="0.80"/><rect x="648.2" y="145.1" width="17.8" height="5.6" rx="1" fill="hsl(174 24% 12%)" opacity="0.85"/><rect x="540" y="173.3" width="142" height="1.4" fill="hsl(174 22% 9%)" opacity="0.7"/><rect x="549.0" y="162.7" width="17.8" height="5.6" rx="1" fill="#4fd1c5" opacity="0.38"/><rect x="573.8" y="162.7" width="17.8" height="5.6" rx="1" fill="hsl(174 24% 12%)" opacity="0.85"/><rect x="598.6" y="162.7" width="17.8" height="5.6" rx="1" fill="hsl(174 24% 12%)" opacity="0.85"/><rect x="623.4" y="162.7" width="17.8" height="5.6" rx="1" fill="hsl(174 24% 12%)" opacity="0.85"/><rect x="648.2" y="162.7" width="17.8" height="5.6" rx="1" fill="#4fd1c5" opacity="0.37"/><rect x="540" y="191.0" width="142" height="1.4" fill="hsl(174 22% 9%)" opacity="0.7"/><rect x="549.0" y="180.3" width="17.8" height="5.6" rx="1" fill="#4fd1c5" opacity="0.72"/><rect x="573.8" y="180.3" width="17.8" height="5.6" rx="1" fill="hsl(174 24% 12%)" opacity="0.85"/><rect x="598.6" y="180.3" width="17.8" height="5.6" rx="1" fill="#4fd1c5" opacity="0.58"/><rect x="623.4" y="180.3" width="17.8" height="5.6" rx="1" fill="hsl(174 24% 12%)" opacity="0.85"/><rect x="648.2" y="180.3" width="17.8" height="5.6" rx="1" fill="hsl(174 24% 12%)" opacity="0.85"/><rect x="540" y="208.6" width="142" height="1.4" fill="hsl(174 22% 9%)" opacity="0.7"/><rect x="549.0" y="198.0" width="17.8" height="5.6" rx="1" fill="#4fd1c5" opacity="0.77"/><rect x="573.8" y="198.0" width="17.8" height="5.6" rx="1" fill="hsl(174 24% 12%)" opacity="0.85"/><rect x="598.6" y="198.0" width="17.8" height="5.6" rx="1" fill="hsl(174 24% 12%)" opacity="0.85"/><rect x="623.4" y="198.0" width="17.8" height="5.6" rx="1" fill="#4fd1c5" opacity="0.46"/><rect x="648.2" y="198.0" width="17.8" height="5.6" rx="1" fill="hsl(174 24% 12%)" opacity="0.85"/><rect x="540" y="226.2" width="142" height="1.4" fill="hsl(174 22% 9%)" opacity="0.7"/><rect x="549.0" y="215.6" width="17.8" height="5.6" rx="1" fill="hsl(174 24% 12%)" opacity="0.85"/><rect x="573.8" y="215.6" width="17.8" height="5.6" rx="1" fill="hsl(174 24% 12%)" opacity="0.85"/><rect x="598.6" y="215.6" width="17.8" height="5.6" rx="1" fill="hsl(174 24% 12%)" opacity="0.85"/><rect x="623.4" y="215.6" width="17.8" height="5.6" rx="1" fill="hsl(174 24% 12%)" opacity="0.85"/><rect x="648.2" y="215.6" width="17.8" height="5.6" rx="1" fill="hsl(174 24% 12%)" opacity="0.85"/><rect x="540" y="243.8" width="142" height="1.4" fill="hsl(174 22% 9%)" opacity="0.7"/><rect x="549.0" y="233.2" width="17.8" height="5.6" rx="1" fill="hsl(174 24% 12%)" opacity="0.85"/><rect x="573.8" y="233.2" width="17.8" height="5.6" rx="1" fill="hsl(174 24% 12%)" opacity="0.85"/><rect x="598.6" y="233.2" width="17.8" height="5.6" rx="1" fill="hsl(174 24% 12%)" opacity="0.85"/><rect x="623.4" y="233.2" width="17.8" height="5.6" rx="1" fill="hsl(174 24% 12%)" opacity="0.85"/><rect x="648.2" y="233.2" width="17.8" height="5.6" rx="1" fill="#4fd1c5" opacity="0.59"/><rect x="540" y="261.4" width="142" height="1.4" fill="hsl(174 22% 9%)" opacity="0.7"/><rect x="549.0" y="250.8" width="17.8" height="5.6" rx="1" fill="#4fd1c5" opacity="0.43"/><rect x="573.8" y="250.8" width="17.8" height="5.6" rx="1" fill="#4fd1c5" opacity="0.73"/><rect x="598.6" y="250.8" width="17.8" height="5.6" rx="1" fill="#4fd1c5" opacity="0.41"/><rect x="623.4" y="250.8" width="17.8" height="5.6" rx="1" fill="hsl(174 24% 12%)" opacity="0.85"/><rect x="648.2" y="250.8" width="17.8" height="5.6" rx="1" fill="hsl(174 24% 12%)" opacity="0.85"/><rect x="540" y="279.0" width="142" height="1.4" fill="hsl(174 22% 9%)" opacity="0.7"/><rect x="549.0" y="268.4" width="17.8" height="5.6" rx="1" fill="hsl(174 24% 12%)" opacity="0.85"/><rect x="573.8" y="268.4" width="17.8" height="5.6" rx="1" fill="hsl(174 24% 12%)" opacity="0.85"/><rect x="598.6" y="268.4" width="17.8" height="5.6" rx="1" fill="hsl(174 24% 12%)" opacity="0.85"/><rect x="623.4" y="268.4" width="17.8" height="5.6" rx="1" fill="hsl(174 24% 12%)" opacity="0.85"/><rect x="648.2" y="268.4" width="17.8" height="5.6" rx="1" fill="#4fd1c5" opacity="0.47"/><rect x="540" y="296.7" width="142" height="1.4" fill="hsl(174 22% 9%)" opacity="0.7"/><rect x="549.0" y="286.0" width="17.8" height="5.6" rx="1" fill="#4fd1c5" opacity="0.50"/><rect x="573.8" y="286.0" width="17.8" height="5.6" rx="1" fill="hsl(174 24% 12%)" opacity="0.85"/><rect x="598.6" y="286.0" width="17.8" height="5.6" rx="1" fill="hsl(174 24% 12%)" opacity="0.85"/><rect x="623.4" y="286.0" width="17.8" height="5.6" rx="1" fill="hsl(174 24% 12%)" opacity="0.85"/><rect x="648.2" y="286.0" width="17.8" height="5.6" rx="1" fill="hsl(174 24% 12%)" opacity="0.85"/><rect x="540" y="314.3" width="142" height="1.4" fill="hsl(174 22% 9%)" opacity="0.7"/><rect x="549.0" y="303.7" width="17.8" height="5.6" rx="1" fill="hsl(174 24% 12%)" opacity="0.85"/><rect x="573.8" y="303.7" width="17.8" height="5.6" rx="1" fill="hsl(174 24% 12%)" opacity="0.85"/><rect x="598.6" y="303.7" width="17.8" height="5.6" rx="1" fill="hsl(174 24% 12%)" opacity="0.85"/><rect x="623.4" y="303.7" width="17.8" height="5.6" rx="1" fill="hsl(174 24% 12%)" opacity="0.85"/><rect x="648.2" y="303.7" width="17.8" height="5.6" rx="1" fill="hsl(174 24% 12%)" opacity="0.85"/><rect x="540" y="331.9" width="142" height="1.4" fill="hsl(174 22% 9%)" opacity="0.7"/><rect x="549.0" y="321.3" width="17.8" height="5.6" rx="1" fill="hsl(174 24% 12%)" opacity="0.85"/><rect x="573.8" y="321.3" width="17.8" height="5.6" rx="1" fill="hsl(174 24% 12%)" opacity="0.85"/><rect x="598.6" y="321.3" width="17.8" height="5.6" rx="1" fill="#4fd1c5" opacity="0.44"/><rect x="623.4" y="321.3" width="17.8" height="5.6" rx="1" fill="hsl(174 24% 12%)" opacity="0.85"/><rect x="648.2" y="321.3" width="17.8" height="5.6" rx="1" fill="hsl(174 24% 12%)" opacity="0.85"/><rect x="540" y="349.5" width="142" height="1.4" fill="hsl(174 22% 9%)" opacity="0.7"/><rect x="549.0" y="338.9" width="17.8" height="5.6" rx="1" fill="#4fd1c5" opacity="0.53"/><rect x="573.8" y="338.9" width="17.8" height="5.6" rx="1" fill="hsl(174 24% 12%)" opacity="0.85"/><rect x="598.6" y="338.9" width="17.8" height="5.6" rx="1" fill="hsl(174 24% 12%)" opacity="0.85"/><rect x="623.4" y="338.9" width="17.8" height="5.6" rx="1" fill="#4fd1c5" opacity="0.51"/><rect x="648.2" y="338.9" width="17.8" height="5.6" rx="1" fill="hsl(174 24% 12%)" opacity="0.85"/><rect x="540" y="367.1" width="142" height="1.4" fill="hsl(174 22% 9%)" opacity="0.7"/><rect x="549.0" y="356.5" width="17.8" height="5.6" rx="1" fill="#4fd1c5" opacity="0.72"/><rect x="573.8" y="356.5" width="17.8" height="5.6" rx="1" fill="hsl(174 24% 12%)" opacity="0.85"/><rect x="598.6" y="356.5" width="17.8" height="5.6" rx="1" fill="hsl(174 24% 12%)" opacity="0.85"/><rect x="623.4" y="356.5" width="17.8" height="5.6" rx="1" fill="hsl(174 24% 12%)" opacity="0.85"/><rect x="648.2" y="356.5" width="17.8" height="5.6" rx="1" fill="hsl(174 24% 12%)" opacity="0.85"/><rect x="540" y="384.8" width="142" height="1.4" fill="hsl(174 22% 9%)" opacity="0.7"/><rect x="549.0" y="374.1" width="17.8" height="5.6" rx="1" fill="hsl(174 24% 12%)" opacity="0.85"/><rect x="573.8" y="374.1" width="17.8" height="5.6" rx="1" fill="hsl(174 24% 12%)" opacity="0.85"/><rect x="598.6" y="374.1" width="17.8" height="5.6" rx="1" fill="hsl(174 24% 12%)" opacity="0.85"/><rect x="623.4" y="374.1" width="17.8" height="5.6" rx="1" fill="hsl(174 24% 12%)" opacity="0.85"/><rect x="648.2" y="374.1" width="17.8" height="5.6" rx="1" fill="hsl(174 24% 12%)" opacity="0.85"/><rect x="540" y="402.4" width="142" height="1.4" fill="hsl(174 22% 9%)" opacity="0.7"/><rect x="549.0" y="391.8" width="17.8" height="5.6" rx="1" fill="hsl(174 24% 12%)" opacity="0.85"/><rect x="573.8" y="391.8" width="17.8" height="5.6" rx="1" fill="hsl(174 24% 12%)" opacity="0.85"/><rect x="598.6" y="391.8" width="17.8" height="5.6" rx="1" fill="hsl(174 24% 12%)" opacity="0.85"/><rect x="623.4" y="391.8" width="17.8" height="5.6" rx="1" fill="hsl(174 24% 12%)" opacity="0.85"/><rect x="648.2" y="391.8" width="17.8" height="5.6" rx="1" fill="hsl(174 24% 12%)" opacity="0.85"/><rect x="540" y="420.0" width="142" height="1.4" fill="hsl(174 22% 9%)" opacity="0.7"/><rect x="549.0" y="409.4" width="17.8" height="5.6" rx="1" fill="hsl(174 24% 12%)" opacity="0.85"/><rect x="573.8" y="409.4" width="17.8" height="5.6" rx="1" fill="hsl(174 24% 12%)" opacity="0.85"/><rect x="598.6" y="409.4" width="17.8" height="5.6" rx="1" fill="hsl(174 24% 12%)" opacity="0.85"/><rect x="623.4" y="409.4" width="17.8" height="5.6" rx="1" fill="hsl(174 24% 12%)" opacity="0.85"/><rect x="648.2" y="409.4" width="17.8" height="5.6" rx="1" fill="#4fd1c5" opacity="0.49"/><rect x="0" y="422" width="800" height="58" fill="hsl(174 30% 6%)"/><rect x="0" y="422" width="800" height="1" fill="#4fd1c5" opacity="0.18"/><text x="20" y="462" font-family="system-ui, sans-serif" font-size="13" fill="#eef5f0" opacity="0.5">Generated illustration · not a photograph of this property</text></svg>