<svg xmlns="http://www.w3.org/2000/svg" viewBox="0 0 800 480" width="800" height="480" role="img" aria-label="Generated architectural illustration for 4 BHK in Tamarind Heights"><defs><linearGradient id="sky" x1="0" y1="0" x2="0" y2="1"><stop offset="0%" stop-color="hsl(179 42% 26%)"/><stop offset="55%" stop-color="hsl(169 44% 16%)"/><stop offset="100%" stop-color="hsl(165 46% 10%)"/></linearGradient><radialGradient id="glow"><stop offset="0%" stop-color="#6fdcd2" stop-opacity="0.55"/><stop offset="100%" stop-color="#6fdcd2" stop-opacity="0"/></radialGradient><radialGradient id="glow2"><stop offset="0%" stop-color="#8b7cf0" stop-opacity="0.34"/><stop offset="100%" stop-color="#8b7cf0" stop-opacity="0"/></radialGradient><linearGradient id="face" x1="0" y1="0" x2="1" y2="0"><stop offset="0%" stop-color="hsl(169 30% 22%)"/><stop offset="100%" stop-color="hsl(169 36% 40%)"/></linearGradient><linearGradient id="side" x1="0" y1="0" x2="1" y2="0"><stop offset="0%" stop-color="hsl(169 34% 14%)"/><stop offset="100%" stop-color="hsl(169 32% 23%)"/></linearGradient></defs><rect width="800" height="480" fill="url(#sky)"/><circle cx="624" cy="96" r="250" fill="url(#glow)"/><circle cx="112.00000000000001" cy="297.6" r="200" fill="url(#glow2)"/><polygon points="224,110 258,94 258,406 224,422" fill="url(#side)"/><rect x="96" y="110" width="128" height="312" fill="url(#face)"/><rect x="96" y="125.3" width="128" height="1.4" fill="hsl(169 26% 11%)" opacity="0.55"/><rect x="105.0" y="115.0" width="20.5" height="5.3" rx="1" fill="hsl(169 30% 15%)" opacity="0.7"/><rect x="132.5" y="115.0" width="20.5" height="5.3" rx="1" fill="hsl(169 30% 15%)" opacity="0.7"/><rect x="160.0" y="115.0" width="20.5" height="5.3" rx="1" fill="hsl(169 30% 15%)" opacity="0.7"/><rect x="187.5" y="115.0" width="20.5" height="5.3" rx="1" fill="hsl(169 30% 15%)" opacity="0.7"/><rect x="96" y="142.7" width="128" height="1.4" fill="hsl(169 26% 11%)" opacity="0.55"/><rect x="105.0" y="132.3" width="20.5" height="5.3" rx="1" fill="hsl(169 30% 15%)" opacity="0.7"/><rect x="132.5" y="132.3" width="20.5" height="5.3" rx="1" fill="#a8f2e9" opacity="0.89"/><rect x="160.0" y="132.3" width="20.5" height="5.3" rx="1" fill="hsl(169 30% 15%)" opacity="0.7"/><rect x="187.5" y="132.3" width="20.5" height="5.3" rx="1" fill="hsl(169 30% 15%)" opacity="0.7"/><rect x="96" y="160.0" width="128" height="1.4" fill="hsl(169 26% 11%)" opacity="0.55"/><rect x="105.0" y="149.7" width="20.5" height="5.3" rx="1" fill="hsl(169 30% 15%)" opacity="0.7"/><rect x="132.5" y="149.7" width="20.5" height="5.3" rx="1" fill="#a8f2e9" opacity="0.78"/><rect x="160.0" y="149.7" width="20.5" height="5.3" rx="1" fill="hsl(169 30% 15%)" opacity="0.7"/><rect x="187.5" y="149.7" width="20.5" height="5.3" rx="1" fill="hsl(169 30% 15%)" opacity="0.7"/><rect x="96" y="177.3" width="128" height="1.4" fill="hsl(169 26% 11%)" opacity="0.55"/><rect x="105.0" y="167.0" width="20.5" height="5.3" rx="1" fill="#a8f2e9" opacity="0.95"/><rect x="132.5" y="167.0" width="20.5" height="5.3" rx="1" fill="#a8f2e9" opacity="0.82"/><rect x="160.0" y="167.0" width="20.5" height="5.3" rx="1" fill="hsl(169 30% 15%)" opacity="0.7"/><rect x="187.5" y="167.0" width="20.5" height="5.3" rx="1" fill="hsl(169 30% 15%)" opacity="0.7"/><rect x="96" y="194.7" width="128" height="1.4" fill="hsl(169 26% 11%)" opacity="0.55"/><rect x="105.0" y="184.3" width="20.5" height="5.3" rx="1" fill="hsl(169 30% 15%)" opacity="0.7"/><rect x="132.5" y="184.3" width="20.5" height="5.3" rx="1" fill="hsl(169 30% 15%)" opacity="0.7"/><rect x="160.0" y="184.3" width="20.5" height="5.3" rx="1" fill="hsl(169 30% 15%)" opacity="0.7"/><rect x="187.5" y="184.3" width="20.5" height="5.3" rx="1" fill="hsl(169 30% 15%)" opacity="0.7"/><rect x="96" y="212.0" width="128" height="1.4" fill="hsl(169 26% 11%)" opacity="0.55"/><rect x="105.0" y="201.7" width="20.5" height="5.3" rx="1" fill="hsl(169 30% 15%)" opacity="0.7"/><rect x="132.5" y="201.7" width="20.5" height="5.3" rx="1" fill="#a8f2e9" opacity="0.76"/><rect x="160.0" y="201.7" width="20.5" height="5.3" rx="1" fill="#a8f2e9" opacity="0.97"/><rect x="187.5" y="201.7" width="20.5" height="5.3" rx="1" fill="hsl(169 30% 15%)" opacity="0.7"/><rect x="96" y="229.3" width="128" height="1.4" fill="hsl(169 26% 11%)" opacity="0.55"/><rect x="105.0" y="219.0" width="20.5" height="5.3" rx="1" fill="hsl(169 30% 15%)" opacity="0.7"/><rect x="132.5" y="219.0" width="20.5" height="5.3" rx="1" fill="hsl(169 30% 15%)" opacity="0.7"/><rect x="160.0" y="219.0" width="20.5" height="5.3" rx="1" fill="hsl(169 30% 15%)" opacity="0.7"/><rect x="187.5" y="219.0" width="20.5" height="5.3" rx="1" fill="hsl(169 30% 15%)" opacity="0.7"/><rect x="96" y="246.7" width="128" height="1.4" fill="hsl(169 26% 11%)" opacity="0.55"/><rect x="105.0" y="236.3" width="20.5" height="5.3" rx="1" fill="hsl(169 30% 15%)" opacity="0.7"/><rect x="132.5" y="236.3" width="20.5" height="5.3" rx="1" fill="#a8f2e9" opacity="0.64"/><rect x="160.0" y="236.3" width="20.5" height="5.3" rx="1" fill="#a8f2e9" opacity="0.64"/><rect x="187.5" y="236.3" width="20.5" height="5.3" rx="1" fill="#a8f2e9" opacity="0.67"/><rect x="96" y="264.0" width="128" height="1.4" fill="hsl(169 26% 11%)" opacity="0.55"/><rect x="105.0" y="253.7" width="20.5" height="5.3" rx="1" fill="hsl(169 30% 15%)" opacity="0.7"/><rect x="132.5" y="253.7" width="20.5" height="5.3" rx="1" fill="hsl(169 30% 15%)" opacity="0.7"/><rect x="160.0" y="253.7" width="20.5" height="5.3" rx="1" fill="hsl(169 30% 15%)" opacity="0.7"/><rect x="187.5" y="253.7" width="20.5" height="5.3" rx="1" fill="hsl(169 30% 15%)" opacity="0.7"/><rect x="96" y="281.3" width="128" height="1.4" fill="hsl(169 26% 11%)" opacity="0.55"/><rect x="105.0" y="271.0" width="20.5" height="5.3" rx="1" fill="#a8f2e9" opacity="0.74"/><rect x="132.5" y="271.0" width="20.5" height="5.3" rx="1" fill="hsl(169 30% 15%)" opacity="0.7"/><rect x="160.0" y="271.0" width="20.5" height="5.3" rx="1" fill="#a8f2e9" opacity="0.74"/><rect x="187.5" y="271.0" width="20.5" height="5.3" rx="1" fill="hsl(169 30% 15%)" opacity="0.7"/><rect x="96" y="298.7" width="128" height="1.4" fill="hsl(169 26% 11%)" opacity="0.55"/><rect x="105.0" y="288.3" width="20.5" height="5.3" rx="1" fill="hsl(169 30% 15%)" opacity="0.7"/><rect x="132.5" y="288.3" width="20.5" height="5.3" rx="1" fill="hsl(169 30% 15%)" opacity="0.7"/><rect x="160.0" y="288.3" width="20.5" height="5.3" rx="1" fill="hsl(169 30% 15%)" opacity="0.7"/><rect x="187.5" y="288.3" width="20.5" height="5.3" rx="1" fill="hsl(169 30% 15%)" opacity="0.7"/><rect x="96" y="316.0" width="128" height="1.4" fill="hsl(169 26% 11%)" opacity="0.55"/><rect x="105.0" y="305.7" width="20.5" height="5.3" rx="1" fill="hsl(169 30% 15%)" opacity="0.7"/><rect x="132.5" y="305.7" width="20.5" height="5.3" rx="1" fill="hsl(169 30% 15%)" opacity="0.7"/><rect x="160.0" y="305.7" width="20.5" height="5.3" rx="1" fill="hsl(169 30% 15%)" opacity="0.7"/><rect x="187.5" y="305.7" width="20.5" height="5.3" rx="1" fill="hsl(169 30% 15%)" opacity="0.7"/><rect x="96" y="333.3" width="128" height="1.4" fill="hsl(169 26% 11%)" opacity="0.55"/><rect x="105.0" y="323.0" width="20.5" height="5.3" rx="1" fill="hsl(169 30% 15%)" opacity="0.7"/><rect x="132.5" y="323.0" width="20.5" height="5.3" rx="1" fill="#a8f2e9" opacity="0.98"/><rect x="160.0" y="323.0" width="20.5" height="5.3" rx="1" fill="hsl(169 30% 15%)" opacity="0.7"/><rect x="187.5" y="323.0" width="20.5" height="5.3" rx="1" fill="hsl(169 30% 15%)" opacity="0.7"/><rect x="96" y="350.7" width="128" height="1.4" fill="hsl(169 26% 11%)" opacity="0.55"/><rect x="105.0" y="340.3" width="20.5" height="5.3" rx="1" fill="#a8f2e9" opacity="0.66"/><rect x="132.5" y="340.3" width="20.5" height="5.3" rx="1" fill="hsl(169 30% 15%)" opacity="0.7"/><rect x="160.0" y="340.3" width="20.5" height="5.3" rx="1" fill="hsl(169 30% 15%)" opacity="0.7"/><rect x="187.5" y="340.3" width="20.5" height="5.3" rx="1" fill="#a8f2e9" opacity="0.91"/><rect x="96" y="368.0" width="128" height="1.4" fill="hsl(169 26% 11%)" opacity="0.55"/><rect x="105.0" y="357.7" width="20.5" height="5.3" rx="1" fill="hsl(169 30% 15%)" opacity="0.7"/><rect x="132.5" y="357.7" width="20.5" height="5.3" rx="1" fill="#a8f2e9" opacity="0.63"/><rect x="160.0" y="357.7" width="20.5" height="5.3" rx="1" fill="hsl(169 30% 15%)" opacity="0.7"/><rect x="187.5" y="357.7" width="20.5" height="5.3" rx="1" fill="#a8f2e9" opacity="0.61"/><rect x="96" y="385.3" width="128" height="1.4" fill="hsl(169 26% 11%)" opacity="0.55"/><rect x="105.0" y="375.0" width="20.5" height="5.3" rx="1" fill="#a8f2e9" opacity="0.96"/><rect x="132.5" y="375.0" width="20.5" height="5.3" rx="1" fill="hsl(169 30% 15%)" opacity="0.7"/><rect x="160.0" y="375.0" width="20.5" height="5.3" rx="1" fill="hsl(169 30% 15%)" opacity="0.7"/><rect x="187.5" y="375.0" width="20.5" height="5.3" rx="1" fill="hsl(169 30% 15%)" opacity="0.7"/><rect x="96" y="402.7" width="128" height="1.4" fill="hsl(169 26% 11%)" opacity="0.55"/><rect x="105.0" y="392.3" width="20.5" height="5.3" rx="1" fill="hsl(169 30% 15%)" opacity="0.7"/><rect x="132.5" y="392.3" width="20.5" height="5.3" rx="1" fill="hsl(169 30% 15%)" opacity="0.7"/><rect x="160.0" y="392.3" width="20.5" height="5.3" rx="1" fill="hsl(169 30% 15%)" opacity="0.7"/><rect x="187.5" y="392.3" width="20.5" height="5.3" rx="1" fill="#a8f2e9" opacity="0.80"/><rect x="96" y="420.0" width="128" height="1.4" fill="hsl(169 26% 11%)" opacity="0.55"/><rect x="105.0" y="409.7" width="20.5" height="5.3" rx="1" fill="hsl(169 30% 15%)" opacity="0.7"/><rect x="132.5" y="409.7" width="20.5" height="5.3" rx="1" fill="hsl(169 30% 15%)" opacity="0.7"/><rect x="160.0" y="409.7" width="20.5" height="5.3" rx="1" fill="hsl(169 30% 15%)" opacity="0.7"/><rect x="187.5" y="409.7" width="20.5" height="5.3" rx="1" fill="hsl(169 30% 15%)" opacity="0.7"/><polygon points="476,16 520,0 520,406 476,422" fill="url(#side)"/><rect x="300" y="16" width="176" height="406" fill="url(#face)"/><rect x="300" y="36.6" width="176" height="1.4" fill="hsl(169 26% 11%)" opacity="0.55"/><rect x="309.0" y="21.0" width="19.3" height="10.6" rx="1" fill="#a8f2e9" opacity="0.74"/><rect x="335.3" y="21.0" width="19.3" height="10.6" rx="1" fill="#a8f2e9" opacity="0.66"/><rect x="361.7" y="21.0" width="19.3" height="10.6" rx="1" fill="#a8f2e9" opacity="0.72"/><rect x="388.0" y="21.0" width="19.3" height="10.6" rx="1" fill="hsl(169 30% 15%)" opacity="0.7"/><rect x="414.3" y="21.0" width="19.3" height="10.6" rx="1" fill="#a8f2e9" opacity="0.97"/><rect x="440.7" y="21.0" width="19.3" height="10.6" rx="1" fill="hsl(169 30% 15%)" opacity="0.7"/><rect x="300" y="59.1" width="176" height="1.4" fill="hsl(169 26% 11%)" opacity="0.55"/><rect x="309.0" y="43.6" width="19.3" height="10.6" rx="1" fill="#a8f2e9" opacity="0.63"/><rect x="335.3" y="43.6" width="19.3" height="10.6" rx="1" fill="hsl(169 30% 15%)" opacity="0.7"/><rect x="361.7" y="43.6" width="19.3" height="10.6" rx="1" fill="hsl(169 30% 15%)" opacity="0.7"/><rect x="388.0" y="43.6" width="19.3" height="10.6" rx="1" fill="hsl(169 30% 15%)" opacity="0.7"/><rect x="414.3" y="43.6" width="19.3" height="10.6" rx="1" fill="hsl(169 30% 15%)" opacity="0.7"/><rect x="440.7" y="43.6" width="19.3" height="10.6" rx="1" fill="#a8f2e9" opacity="0.89"/><rect x="300" y="81.7" width="176" height="1.4" fill="hsl(169 26% 11%)" opacity="0.55"/><rect x="309.0" y="66.1" width="19.3" height="10.6" rx="1" fill="#a8f2e9" opacity="0.67"/><rect x="335.3" y="66.1" width="19.3" height="10.6" rx="1" fill="hsl(169 30% 15%)" opacity="0.7"/><rect x="361.7" y="66.1" width="19.3" height="10.6" rx="1" fill="#a8f2e9" opacity="0.63"/><rect x="388.0" y="66.1" width="19.3" height="10.6" rx="1" fill="hsl(169 30% 15%)" opacity="0.7"/><rect x="414.3" y="66.1" width="19.3" height="10.6" rx="1" fill="#a8f2e9" opacity="0.70"/><rect x="440.7" y="66.1" width="19.3" height="10.6" rx="1" fill="#a8f2e9" opacity="0.88"/><rect x="300" y="104.2" width="176" height="1.4" fill="hsl(169 26% 11%)" opacity="0.55"/><rect x="309.0" y="88.7" width="19.3" height="10.6" rx="1" fill="hsl(169 30% 15%)" opacity="0.7"/><rect x="335.3" y="88.7" width="19.3" height="10.6" rx="1" fill="hsl(169 30% 15%)" opacity="0.7"/><rect x="361.7" y="88.7" width="19.3" height="10.6" rx="1" fill="hsl(169 30% 15%)" opacity="0.7"/><rect x="388.0" y="88.7" width="19.3" height="10.6" rx="1" fill="hsl(169 30% 15%)" opacity="0.7"/><rect x="414.3" y="88.7" width="19.3" height="10.6" rx="1" fill="#a8f2e9" opacity="0.69"/><rect x="440.7" y="88.7" width="19.3" height="10.6" rx="1" fill="#a8f2e9" opacity="0.67"/><rect x="300" y="126.8" width="176" height="1.4" fill="hsl(169 26% 11%)" opacity="0.55"/><rect x="309.0" y="111.2" width="19.3" height="10.6" rx="1" fill="hsl(169 30% 15%)" opacity="0.7"/><rect x="335.3" y="111.2" width="19.3" height="10.6" rx="1" fill="#a8f2e9" opacity="0.97"/><rect x="361.7" y="111.2" width="19.3" height="10.6" rx="1" fill="#a8f2e9" opacity="0.70"/><rect x="388.0" y="111.2" width="19.3" height="10.6" rx="1" fill="hsl(169 30% 15%)" opacity="0.7"/><rect x="414.3" y="111.2" width="19.3" height="10.6" rx="1" fill="hsl(169 30% 15%)" opacity="0.7"/><rect x="440.7" y="111.2" width="19.3" height="10.6" rx="1" fill="#a8f2e9" opacity="0.97"/><rect x="300" y="149.3" width="176" height="1.4" fill="hsl(169 26% 11%)" opacity="0.55"/><rect x="309.0" y="133.8" width="19.3" height="10.6" rx="1" fill="#a8f2e9" opacity="0.80"/><rect x="335.3" y="133.8" width="19.3" height="10.6" rx="1" fill="hsl(169 30% 15%)" opacity="0.7"/><rect x="361.7" y="133.8" width="19.3" height="10.6" rx="1" fill="hsl(169 30% 15%)" opacity="0.7"/><rect x="388.0" y="133.8" width="19.3" height="10.6" rx="1" fill="#a8f2e9" opacity="0.75"/><rect x="414.3" y="133.8" width="19.3" height="10.6" rx="1" fill="hsl(169 30% 15%)" opacity="0.7"/><rect x="440.7" y="133.8" width="19.3" height="10.6" rx="1" fill="#a8f2e9" opacity="0.77"/><rect x="300" y="171.9" width="176" height="1.4" fill="hsl(169 26% 11%)" opacity="0.55"/><rect x="309.0" y="156.3" width="19.3" height="10.6" rx="1" fill="hsl(169 30% 15%)" opacity="0.7"/><rect x="335.3" y="156.3" width="19.3" height="10.6" rx="1" fill="hsl(169 30% 15%)" opacity="0.7"/><rect x="361.7" y="156.3" width="19.3" height="10.6" rx="1" fill="hsl(169 30% 15%)" opacity="0.7"/><rect x="388.0" y="156.3" width="19.3" height="10.6" rx="1" fill="#a8f2e9" opacity="0.97"/><rect x="414.3" y="156.3" width="19.3" height="10.6" rx="1" fill="#a8f2e9" opacity="0.64"/><rect x="440.7" y="156.3" width="19.3" height="10.6" rx="1" fill="hsl(169 30% 15%)" opacity="0.7"/><rect x="300" y="194.4" width="176" height="1.4" fill="hsl(169 26% 11%)" opacity="0.55"/><rect x="309.0" y="178.9" width="19.3" height="10.6" rx="1" fill="hsl(169 30% 15%)" opacity="0.7"/><rect x="335.3" y="178.9" width="19.3" height="10.6" rx="1" fill="#a8f2e9" opacity="0.75"/><rect x="361.7" y="178.9" width="19.3" height="10.6" rx="1" fill="#a8f2e9" opacity="0.77"/><rect x="388.0" y="178.9" width="19.3" height="10.6" rx="1" fill="#a8f2e9" opacity="0.89"/><rect x="414.3" y="178.9" width="19.3" height="10.6" rx="1" fill="hsl(169 30% 15%)" opacity="0.7"/><rect x="440.7" y="178.9" width="19.3" height="10.6" rx="1" fill="#a8f2e9" opacity="0.71"/><rect x="300" y="217.0" width="176" height="1.4" fill="hsl(169 26% 11%)" opacity="0.55"/><rect x="309.0" y="201.4" width="19.3" height="10.6" rx="1" fill="#a8f2e9" opacity="0.66"/><rect x="335.3" y="201.4" width="19.3" height="10.6" rx="1" fill="hsl(169 30% 15%)" opacity="0.7"/><rect x="361.7" y="201.4" width="19.3" height="10.6" rx="1" fill="#a8f2e9" opacity="0.94"/><rect x="388.0" y="201.4" width="19.3" height="10.6" rx="1" fill="#a8f2e9" opacity="0.83"/><rect x="414.3" y="201.4" width="19.3" height="10.6" rx="1" fill="#a8f2e9" opacity="0.61"/><rect x="440.7" y="201.4" width="19.3" height="10.6" rx="1" fill="hsl(169 30% 15%)" opacity="0.7"/><rect x="300" y="239.6" width="176" height="1.4" fill="hsl(169 26% 11%)" opacity="0.55"/><rect x="309.0" y="224.0" width="19.3" height="10.6" rx="1" fill="#a8f2e9" opacity="0.78"/><rect x="335.3" y="224.0" width="19.3" height="10.6" rx="1" fill="hsl(169 30% 15%)" opacity="0.7"/><rect x="361.7" y="224.0" width="19.3" height="10.6" rx="1" fill="#a8f2e9" opacity="0.86"/><rect x="388.0" y="224.0" width="19.3" height="10.6" rx="1" fill="hsl(169 30% 15%)" opacity="0.7"/><rect x="414.3" y="224.0" width="19.3" height="10.6" rx="1" fill="#a8f2e9" opacity="0.83"/><rect x="440.7" y="224.0" width="19.3" height="10.6" rx="1" fill="hsl(169 30% 15%)" opacity="0.7"/><rect x="300" y="262.1" width="176" height="1.4" fill="hsl(169 26% 11%)" opacity="0.55"/><rect x="309.0" y="246.6" width="19.3" height="10.6" rx="1" fill="#a8f2e9" opacity="0.81"/><rect x="335.3" y="246.6" width="19.3" height="10.6" rx="1" fill="#a8f2e9" opacity="0.89"/><rect x="361.7" y="246.6" width="19.3" height="10.6" rx="1" fill="hsl(169 30% 15%)" opacity="0.7"/><rect x="388.0" y="246.6" width="19.3" height="10.6" rx="1" fill="#a8f2e9" opacity="0.96"/><rect x="414.3" y="246.6" width="19.3" height="10.6" rx="1" fill="hsl(169 30% 15%)" opacity="0.7"/><rect x="440.7" y="246.6" width="19.3" height="10.6" rx="1" fill="#a8f2e9" opacity="0.64"/><rect x="300" y="284.7" width="176" height="1.4" fill="hsl(169 26% 11%)" opacity="0.55"/><rect x="309.0" y="269.1" width="19.3" height="10.6" rx="1" fill="#a8f2e9" opacity="0.65"/><rect x="335.3" y="269.1" width="19.3" height="10.6" rx="1" fill="#a8f2e9" opacity="0.72"/><rect x="361.7" y="269.1" width="19.3" height="10.6" rx="1" fill="hsl(169 30% 15%)" opacity="0.7"/><rect x="388.0" y="269.1" width="19.3" height="10.6" rx="1" fill="hsl(169 30% 15%)" opacity="0.7"/><rect x="414.3" y="269.1" width="19.3" height="10.6" rx="1" fill="#a8f2e9" opacity="0.78"/><rect x="440.7" y="269.1" width="19.3" height="10.6" rx="1" fill="#a8f2e9" opacity="0.77"/><rect x="300" y="307.2" width="176" height="1.4" fill="hsl(169 26% 11%)" opacity="0.55"/><rect x="309.0" y="291.7" width="19.3" height="10.6" rx="1" fill="#a8f2e9" opacity="0.70"/><rect x="335.3" y="291.7" width="19.3" height="10.6" rx="1" fill="#a8f2e9" opacity="0.67"/><rect x="361.7" y="291.7" width="19.3" height="10.6" rx="1" fill="hsl(169 30% 15%)" opacity="0.7"/><rect x="388.0" y="291.7" width="19.3" height="10.6" rx="1" fill="hsl(169 30% 15%)" opacity="0.7"/><rect x="414.3" y="291.7" width="19.3" height="10.6" rx="1" fill="#a8f2e9" opacity="0.97"/><rect x="440.7" y="291.7" width="19.3" height="10.6" rx="1" fill="#a8f2e9" opacity="0.77"/><rect x="300" y="329.8" width="176" height="1.4" fill="hsl(169 26% 11%)" opacity="0.55"/><rect x="309.0" y="314.2" width="19.3" height="10.6" rx="1" fill="#a8f2e9" opacity="0.65"/><rect x="335.3" y="314.2" width="19.3" height="10.6" rx="1" fill="hsl(169 30% 15%)" opacity="0.7"/><rect x="361.7" y="314.2" width="19.3" height="10.6" rx="1" fill="#a8f2e9" opacity="0.94"/><rect x="388.0" y="314.2" width="19.3" height="10.6" rx="1" fill="#a8f2e9" opacity="0.91"/><rect x="414.3" y="314.2" width="19.3" height="10.6" rx="1" fill="hsl(169 30% 15%)" opacity="0.7"/><rect x="440.7" y="314.2" width="19.3" height="10.6" rx="1" fill="#a8f2e9" opacity="0.77"/><rect x="300" y="352.3" width="176" height="1.4" fill="hsl(169 26% 11%)" opacity="0.55"/><rect x="309.0" y="336.8" width="19.3" height="10.6" rx="1" fill="#a8f2e9" opacity="0.78"/><rect x="335.3" y="336.8" width="19.3" height="10.6" rx="1" fill="hsl(169 30% 15%)" opacity="0.7"/><rect x="361.7" y="336.8" width="19.3" height="10.6" rx="1" fill="hsl(169 30% 15%)" opacity="0.7"/><rect x="388.0" y="336.8" width="19.3" height="10.6" rx="1" fill="hsl(169 30% 15%)" opacity="0.7"/><rect x="414.3" y="336.8" width="19.3" height="10.6" rx="1" fill="#a8f2e9" opacity="0.81"/><rect x="440.7" y="336.8" width="19.3" height="10.6" rx="1" fill="#a8f2e9" opacity="0.82"/><rect x="300" y="374.9" width="176" height="1.4" fill="hsl(169 26% 11%)" opacity="0.55"/><rect x="309.0" y="359.3" width="19.3" height="10.6" rx="1" fill="hsl(169 30% 15%)" opacity="0.7"/><rect x="335.3" y="359.3" width="19.3" height="10.6" rx="1" fill="#a8f2e9" opacity="0.64"/><rect x="361.7" y="359.3" width="19.3" height="10.6" rx="1" fill="hsl(169 30% 15%)" opacity="0.7"/><rect x="388.0" y="359.3" width="19.3" height="10.6" rx="1" fill="#a8f2e9" opacity="0.86"/><rect x="414.3" y="359.3" width="19.3" height="10.6" rx="1" fill="#a8f2e9" opacity="0.60"/><rect x="440.7" y="359.3" width="19.3" height="10.6" rx="1" fill="hsl(169 30% 15%)" opacity="0.7"/><rect x="300" y="397.4" width="176" height="1.4" fill="hsl(169 26% 11%)" opacity="0.55"/><rect x="309.0" y="381.9" width="19.3" height="10.6" rx="1" fill="hsl(169 30% 15%)" opacity="0.7"/><rect x="335.3" y="381.9" width="19.3" height="10.6" rx="1" fill="hsl(169 30% 15%)" opacity="0.7"/><rect x="361.7" y="381.9" width="19.3" height="10.6" rx="1" fill="#a8f2e9" opacity="0.83"/><rect x="388.0" y="381.9" width="19.3" height="10.6" rx="1" fill="#a8f2e9" opacity="0.81"/><rect x="414.3" y="381.9" width="19.3" height="10.6" rx="1" fill="#a8f2e9" opacity="0.94"/><rect x="440.7" y="381.9" width="19.3" height="10.6" rx="1" fill="#a8f2e9" opacity="0.85"/><rect x="300" y="420.0" width="176" height="1.4" fill="hsl(169 26% 11%)" opacity="0.55"/><rect x="309.0" y="404.4" width="19.3" height="10.6" rx="1" fill="#a8f2e9" opacity="0.81"/><rect x="335.3" y="404.4" width="19.3" height="10.6" rx="1" fill="#a8f2e9" opacity="0.83"/><rect x="361.7" y="404.4" width="19.3" height="10.6" rx="1" fill="hsl(169 30% 15%)" opacity="0.7"/><rect x="388.0" y="404.4" width="19.3" height="10.6" rx="1" fill="#a8f2e9" opacity="0.72"/><rect x="414.3" y="404.4" width="19.3" height="10.6" rx="1" fill="#a8f2e9" opacity="0.79"/><rect x="440.7" y="404.4" width="19.3" height="10.6" rx="1" fill="hsl(169 30% 15%)" opacity="0.7"/><polygon points="682,82 720,66 720,406 682,422" fill="url(#side)"/><rect x="540" y="82" width="142" height="340" fill="url(#face)"/><rect x="540" y="98.9" width="142" height="1.4" fill="hsl(169 26% 11%)" opacity="0.55"/><rect x="549.0" y="87.0" width="17.8" height="6.9" rx="1" fill="hsl(169 30% 15%)" opacity="0.7"/><rect x="573.8" y="87.0" width="17.8" height="6.9" rx="1" fill="hsl(169 30% 15%)" opacity="0.7"/><rect x="598.6" y="87.0" width="17.8" height="6.9" rx="1" fill="#a8f2e9" opacity="0.69"/><rect x="623.4" y="87.0" width="17.8" height="6.9" rx="1" fill="hsl(169 30% 15%)" opacity="0.7"/><rect x="648.2" y="87.0" width="17.8" height="6.9" rx="1" fill="#a8f2e9" opacity="0.79"/><rect x="540" y="117.8" width="142" height="1.4" fill="hsl(169 26% 11%)" opacity="0.55"/><rect x="549.0" y="105.9" width="17.8" height="6.9" rx="1" fill="hsl(169 30% 15%)" opacity="0.7"/><rect x="573.8" y="105.9" width="17.8" height="6.9" rx="1" fill="hsl(169 30% 15%)" opacity="0.7"/><rect x="598.6" y="105.9" width="17.8" height="6.9" rx="1" fill="#a8f2e9" opacity="0.95"/><rect x="623.4" y="105.9" width="17.8" height="6.9" rx="1" fill="hsl(169 30% 15%)" opacity="0.7"/><rect x="648.2" y="105.9" width="17.8" height="6.9" rx="1" fill="hsl(169 30% 15%)" opacity="0.7"/><rect x="540" y="136.7" width="142" height="1.4" fill="hsl(169 26% 11%)" opacity="0.55"/><rect x="549.0" y="124.8" width="17.8" height="6.9" rx="1" fill="hsl(169 30% 15%)" opacity="0.7"/><rect x="573.8" y="124.8" width="17.8" height="6.9" rx="1" fill="hsl(169 30% 15%)" opacity="0.7"/><rect x="598.6" y="124.8" width="17.8" height="6.9" rx="1" fill="#a8f2e9" opacity="0.79"/><rect x="623.4" y="124.8" width="17.8" height="6.9" rx="1" fill="hsl(169 30% 15%)" opacity="0.7"/><rect x="648.2" y="124.8" width="17.8" height="6.9" rx="1" fill="#a8f2e9" opacity="0.97"/><rect x="540" y="155.6" width="142" height="1.4" fill="hsl(169 26% 11%)" opacity="0.55"/><rect x="549.0" y="143.7" width="17.8" height="6.9" rx="1" fill="#a8f2e9" opacity="0.81"/><rect x="573.8" y="143.7" width="17.8" height="6.9" rx="1" fill="hsl(169 30% 15%)" opacity="0.7"/><rect x="598.6" y="143.7" width="17.8" height="6.9" rx="1" fill="#a8f2e9" opacity="0.63"/><rect x="623.4" y="143.7" width="17.8" height="6.9" rx="1" fill="#a8f2e9" opacity="0.77"/><rect x="648.2" y="143.7" width="17.8" height="6.9" rx="1" fill="#a8f2e9" opacity="0.73"/><rect x="540" y="174.4" width="142" height="1.4" fill="hsl(169 26% 11%)" opacity="0.55"/><rect x="549.0" y="162.6" width="17.8" height="6.9" rx="1" fill="#a8f2e9" opacity="0.92"/><rect x="573.8" y="162.6" width="17.8" height="6.9" rx="1" fill="hsl(169 30% 15%)" opacity="0.7"/><rect x="598.6" y="162.6" width="17.8" height="6.9" rx="1" fill="hsl(169 30% 15%)" opacity="0.7"/><rect x="623.4" y="162.6" width="17.8" height="6.9" rx="1" fill="#a8f2e9" opacity="0.62"/><rect x="648.2" y="162.6" width="17.8" height="6.9" rx="1" fill="hsl(169 30% 15%)" opacity="0.7"/><rect x="540" y="193.3" width="142" height="1.4" fill="hsl(169 26% 11%)" opacity="0.55"/><rect x="549.0" y="181.4" width="17.8" height="6.9" rx="1" fill="hsl(169 30% 15%)" opacity="0.7"/><rect x="573.8" y="181.4" width="17.8" height="6.9" rx="1" fill="hsl(169 30% 15%)" opacity="0.7"/><rect x="598.6" y="181.4" width="17.8" height="6.9" rx="1" fill="#a8f2e9" opacity="0.85"/><rect x="623.4" y="181.4" width="17.8" height="6.9" rx="1" fill="hsl(169 30% 15%)" opacity="0.7"/><rect x="648.2" y="181.4" width="17.8" height="6.9" rx="1" fill="hsl(169 30% 15%)" opacity="0.7"/><rect x="540" y="212.2" width="142" height="1.4" fill="hsl(169 26% 11%)" opacity="0.55"/><rect x="549.0" y="200.3" width="17.8" height="6.9" rx="1" fill="#a8f2e9" opacity="0.95"/><rect x="573.8" y="200.3" width="17.8" height="6.9" rx="1" fill="#a8f2e9" opacity="0.81"/><rect x="598.6" y="200.3" width="17.8" height="6.9" rx="1" fill="hsl(169 30% 15%)" opacity="0.7"/><rect x="623.4" y="200.3" width="17.8" height="6.9" rx="1" fill="hsl(169 30% 15%)" opacity="0.7"/><rect x="648.2" y="200.3" width="17.8" height="6.9" rx="1" fill="#a8f2e9" opacity="0.90"/><rect x="540" y="231.1" width="142" height="1.4" fill="hsl(169 26% 11%)" opacity="0.55"/><rect x="549.0" y="219.2" width="17.8" height="6.9" rx="1" fill="#a8f2e9" opacity="0.75"/><rect x="573.8" y="219.2" width="17.8" height="6.9" rx="1" fill="#a8f2e9" opacity="0.82"/><rect x="598.6" y="219.2" width="17.8" height="6.9" rx="1" fill="hsl(169 30% 15%)" opacity="0.7"/><rect x="623.4" y="219.2" width="17.8" height="6.9" rx="1" fill="#a8f2e9" opacity="0.86"/><rect x="648.2" y="219.2" width="17.8" height="6.9" rx="1" fill="#a8f2e9" opacity="0.82"/><rect x="540" y="250.0" width="142" height="1.4" fill="hsl(169 26% 11%)" opacity="0.55"/><rect x="549.0" y="238.1" width="17.8" height="6.9" rx="1" fill="hsl(169 30% 15%)" opacity="0.7"/><rect x="573.8" y="238.1" width="17.8" height="6.9" rx="1" fill="hsl(169 30% 15%)" opacity="0.7"/><rect x="598.6" y="238.1" width="17.8" height="6.9" rx="1" fill="hsl(169 30% 15%)" opacity="0.7"/><rect x="623.4" y="238.1" width="17.8" height="6.9" rx="1" fill="hsl(169 30% 15%)" opacity="0.7"/><rect x="648.2" y="238.1" width="17.8" height="6.9" rx="1" fill="hsl(169 30% 15%)" opacity="0.7"/><rect x="540" y="268.9" width="142" height="1.4" fill="hsl(169 26% 11%)" opacity="0.55"/><rect x="549.0" y="257.0" width="17.8" height="6.9" rx="1" fill="#a8f2e9" opacity="0.65"/><rect x="573.8" y="257.0" width="17.8" height="6.9" rx="1" fill="#a8f2e9" opacity="0.73"/><rect x="598.6" y="257.0" width="17.8" height="6.9" rx="1" fill="hsl(169 30% 15%)" opacity="0.7"/><rect x="623.4" y="257.0" width="17.8" height="6.9" rx="1" fill="#a8f2e9" opacity="0.78"/><rect x="648.2" y="257.0" width="17.8" height="6.9" rx="1" fill="hsl(169 30% 15%)" opacity="0.7"/><rect x="540" y="287.8" width="142" height="1.4" fill="hsl(169 26% 11%)" opacity="0.55"/><rect x="549.0" y="275.9" width="17.8" height="6.9" rx="1" fill="#a8f2e9" opacity="0.84"/><rect x="573.8" y="275.9" width="17.8" height="6.9" rx="1" fill="hsl(169 30% 15%)" opacity="0.7"/><rect x="598.6" y="275.9" width="17.8" height="6.9" rx="1" fill="hsl(169 30% 15%)" opacity="0.7"/><rect x="623.4" y="275.9" width="17.8" height="6.9" rx="1" fill="hsl(169 30% 15%)" opacity="0.7"/><rect x="648.2" y="275.9" width="17.8" height="6.9" rx="1" fill="hsl(169 30% 15%)" opacity="0.7"/><rect x="540" y="306.7" width="142" height="1.4" fill="hsl(169 26% 11%)" opacity="0.55"/><rect x="549.0" y="294.8" width="17.8" height="6.9" rx="1" fill="hsl(169 30% 15%)" opacity="0.7"/><rect x="573.8" y="294.8" width="17.8" height="6.9" rx="1" fill="#a8f2e9" opacity="1.00"/><rect x="598.6" y="294.8" width="17.8" height="6.9" rx="1" fill="hsl(169 30% 15%)" opacity="0.7"/><rect x="623.4" y="294.8" width="17.8" height="6.9" rx="1" fill="hsl(169 30% 15%)" opacity="0.7"/><rect x="648.2" y="294.8" width="17.8" height="6.9" rx="1" fill="hsl(169 30% 15%)" opacity="0.7"/><rect x="540" y="325.6" width="142" height="1.4" fill="hsl(169 26% 11%)" opacity="0.55"/><rect x="549.0" y="313.7" width="17.8" height="6.9" rx="1" fill="hsl(169 30% 15%)" opacity="0.7"/><rect x="573.8" y="313.7" width="17.8" height="6.9" rx="1" fill="hsl(169 30% 15%)" opacity="0.7"/><rect x="598.6" y="313.7" width="17.8" height="6.9" rx="1" fill="#a8f2e9" opacity="0.80"/><rect x="623.4" y="313.7" width="17.8" height="6.9" rx="1" fill="hsl(169 30% 15%)" opacity="0.7"/><rect x="648.2" y="313.7" width="17.8" height="6.9" rx="1" fill="#a8f2e9" opacity="0.83"/><rect x="540" y="344.4" width="142" height="1.4" fill="hsl(169 26% 11%)" opacity="0.55"/><rect x="549.0" y="332.6" width="17.8" height="6.9" rx="1" fill="hsl(169 30% 15%)" opacity="0.7"/><rect x="573.8" y="332.6" width="17.8" height="6.9" rx="1" fill="#a8f2e9" opacity="0.76"/><rect x="598.6" y="332.6" width="17.8" height="6.9" rx="1" fill="#a8f2e9" opacity="0.67"/><rect x="623.4" y="332.6" width="17.8" height="6.9" rx="1" fill="#a8f2e9" opacity="0.72"/><rect x="648.2" y="332.6" width="17.8" height="6.9" rx="1" fill="#a8f2e9" opacity="0.89"/><rect x="540" y="363.3" width="142" height="1.4" fill="hsl(169 26% 11%)" opacity="0.55"/><rect x="549.0" y="351.4" width="17.8" height="6.9" rx="1" fill="#a8f2e9" opacity="0.81"/><rect x="573.8" y="351.4" width="17.8" height="6.9" rx="1" fill="hsl(169 30% 15%)" opacity="0.7"/><rect x="598.6" y="351.4" width="17.8" height="6.9" rx="1" fill="hsl(169 30% 15%)" opacity="0.7"/><rect x="623.4" y="351.4" width="17.8" height="6.9" rx="1" fill="#a8f2e9" opacity="0.77"/><rect x="648.2" y="351.4" width="17.8" height="6.9" rx="1" fill="hsl(169 30% 15%)" opacity="0.7"/><rect x="540" y="382.2" width="142" height="1.4" fill="hsl(169 26% 11%)" opacity="0.55"/><rect x="549.0" y="370.3" width="17.8" height="6.9" rx="1" fill="hsl(169 30% 15%)" opacity="0.7"/><rect x="573.8" y="370.3" width="17.8" height="6.9" rx="1" fill="hsl(169 30% 15%)" opacity="0.7"/><rect x="598.6" y="370.3" width="17.8" height="6.9" rx="1" fill="#a8f2e9" opacity="0.64"/><rect x="623.4" y="370.3" width="17.8" height="6.9" rx="1" fill="hsl(169 30% 15%)" opacity="0.7"/><rect x="648.2" y="370.3" width="17.8" height="6.9" rx="1" fill="hsl(169 30% 15%)" opacity="0.7"/><rect x="540" y="401.1" width="142" height="1.4" fill="hsl(169 26% 11%)" opacity="0.55"/><rect x="549.0" y="389.2" width="17.8" height="6.9" rx="1" fill="hsl(169 30% 15%)" opacity="0.7"/><rect x="573.8" y="389.2" width="17.8" height="6.9" rx="1" fill="#a8f2e9" opacity="0.62"/><rect x="598.6" y="389.2" width="17.8" height="6.9" rx="1" fill="hsl(169 30% 15%)" opacity="0.7"/><rect x="623.4" y="389.2" width="17.8" height="6.9" rx="1" fill="hsl(169 30% 15%)" opacity="0.7"/><rect x="648.2" y="389.2" width="17.8" height="6.9" rx="1" fill="hsl(169 30% 15%)" opacity="0.7"/><rect x="540" y="420.0" width="142" height="1.4" fill="hsl(169 26% 11%)" opacity="0.55"/><rect x="549.0" y="408.1" width="17.8" height="6.9" rx="1" fill="#a8f2e9" opacity="0.81"/><rect x="573.8" y="408.1" width="17.8" height="6.9" rx="1" fill="hsl(169 30% 15%)" opacity="0.7"/><rect x="598.6" y="408.1" width="17.8" height="6.9" rx="1" fill="#a8f2e9" opacity="0.77"/><rect x="623.4" y="408.1" width="17.8" height="6.9" rx="1" fill="hsl(169 30% 15%)" opacity="0.7"/><rect x="648.2" y="408.1" width="17.8" height="6.9" rx="1" fill="hsl(169 30% 15%)" opacity="0.7"/><rect x="0" y="422" width="800" height="58" fill="hsl(169 34% 9%)"/><rect x="0" y="422" width="800" height="1" fill="#6fdcd2" opacity="0.4"/><text x="20" y="462" font-family="system-ui, sans-serif" font-size="13" fill="#eef5f0" opacity="0.62">Generated illustration · not a photograph of this property</text></svg>